<svg width="132" height="32" viewBox="0 0 132 32" fill="none" xmlns="http://www.w3.org/2000/svg">
<g clip-path="url(#clip0_1873_4732)">
<path d="M31.2095 28.0226V26.8032H25.9512V31.8923H27.2706V29.969H30.2594V28.7765H27.2706V28.0226H31.2095Z" fill="white"/>
<path d="M43.5616 26.8032H42.2422V31.8923H43.5616V26.8032Z" fill="white"/>
<path d="M54.5234 28.0149H56.8814V31.8923H58.2008V28.0149H60.5588V26.8032H54.5234V28.0149Z" fill="white"/>
<path d="M76.042 29.7768L71.8954 26.7302H71.4453V31.8924H72.7686V28.9036L76.9306 32.0001H77.3653V26.8033H76.042V29.7768Z" fill="white"/>
<path d="M89.9991 29.8805H92.7917V28.6919H89.9991V28.0226H93.8688V26.8032H88.6797V31.8923H94.0573V30.6691H89.9991V29.8805Z" fill="white"/>
<path d="M108.482 28.6919L107.058 28.6265C106.112 28.5842 106.112 28.4188 106.112 28.3304C106.112 28.0573 106.654 27.8957 107.558 27.8957C108.712 27.8957 109.282 28.1188 109.724 28.3611L109.978 28.4996L110.555 27.4264L110.301 27.2879C109.578 26.8917 108.755 26.7263 107.555 26.7263C105.801 26.7263 104.793 27.3341 104.793 28.3881C104.793 29.7305 106.331 29.8152 106.912 29.8459L108.335 29.9113C109.389 29.9613 109.389 30.1229 109.389 30.2652C109.389 30.6037 108.789 30.8076 107.785 30.8076C106.578 30.8076 105.854 30.4999 105.466 30.2421L105.231 30.0844L104.523 31.1038L104.773 31.2653C105.52 31.75 106.478 31.977 107.785 31.977C109.655 31.977 110.728 31.3307 110.728 30.2075C110.728 28.7996 109.209 28.7266 108.482 28.6919Z" fill="white"/>
<path d="M125.068 28.6921L123.644 28.6267C122.698 28.5844 122.698 28.419 122.698 28.3305C122.698 28.0574 123.237 27.8959 124.144 27.8959C125.298 27.8959 125.872 28.119 126.314 28.3575L126.568 28.496L127.145 27.4227L126.891 27.2843C126.164 26.8881 125.345 26.7227 124.144 26.7227C122.39 26.7227 121.386 27.3304 121.386 28.3844C121.386 29.7269 122.921 29.8115 123.506 29.8423L124.929 29.9077C125.983 29.9577 125.983 30.1192 125.983 30.2616C125.983 30.6001 125.383 30.8039 124.379 30.8039C123.171 30.8039 122.448 30.4962 122.06 30.2385L121.825 30.0846L121.117 31.1001L121.367 31.2617C122.113 31.7463 123.071 31.9733 124.379 31.9733C126.249 31.9733 127.318 31.3271 127.318 30.2039C127.318 28.796 125.799 28.7229 125.072 28.6883L125.068 28.6921Z" fill="white"/>
<path d="M23.248 11.0168H25.8791V12.1362L26.0099 11.9862L26.1753 11.7823C26.7023 11.1514 27.4447 10.8322 28.2832 10.7937H28.5986V13.1786C28.4679 13.1401 28.3371 13.1209 28.2063 13.1055C26.7138 12.9747 25.9868 13.7402 25.9868 15.2135V20.6795H23.2441V11.0168H23.248Z" fill="white"/>
<path d="M31.7485 14.802C32.1793 14.7443 32.6063 14.725 33.0333 14.7827C33.9295 14.8751 34.5257 15.0982 35.0297 15.4713V14.802C35.0297 13.8134 34.395 13.1979 32.8102 13.0095C32.2139 12.9364 31.283 12.9364 30.2368 13.0672C30.0867 13.0864 29.9367 13.1056 29.7906 13.1402V11.0515C30.3483 10.9592 30.833 10.9207 31.3754 10.8823C35.9067 10.713 37.6607 12.1863 37.6607 14.9674V20.6758H34.9566V19.818C34.8643 19.8911 34.7527 19.9872 34.6604 20.0603C33.9141 20.5835 33.114 20.845 32.087 20.8258C29.7559 20.8258 28.375 19.391 28.4481 17.8408C28.4827 16.3291 29.6598 15.0597 31.7485 14.802ZM32.7948 19.1487C33.0371 19.1679 33.2602 19.1679 33.4833 19.1294C33.9141 19.0717 34.2103 18.9602 34.4527 18.7948C35.1412 18.3486 35.2181 17.4523 34.695 16.9676C34.4334 16.7253 34.0026 16.5214 33.4833 16.4637C32.0485 16.2752 31.2253 16.9292 31.1715 17.8062C31.1869 18.4947 31.7292 19.0563 32.7948 19.1487Z" fill="white"/>
<path d="M39.7188 11.0167H42.3498V12.063C42.4229 11.9899 42.4999 11.913 42.5729 11.8399C43.3384 11.1706 44.1193 10.8513 45.054 10.8321C47.4043 10.7744 48.8583 12.3592 48.8583 15.1211V20.6795H46.1157V15.475C46.1349 14.0556 45.631 13.3285 44.6424 13.0708C43.2807 12.7362 42.4614 13.4824 42.4614 14.9749V20.6833H39.7188V11.0167Z" fill="white"/>
<path d="M50.513 14.9712C50.7169 13.6672 51.4285 12.5478 52.4517 11.8208C54.3366 10.4784 56.7984 10.7592 57.9524 12.1363V11.0169H60.5835V20.6219C60.5835 23.3261 58.7717 25.0071 55.079 25.0609C54.5212 25.0609 53.9596 25.0224 53.3826 24.9301V22.5414C53.9058 22.6914 54.425 22.7645 54.9482 22.7452C56.9254 22.7068 57.8216 21.8874 57.8216 20.4719V19.7641C56.833 20.9027 54.9482 21.3297 53.1018 20.4911C51.6478 19.8372 50.6784 18.514 50.4707 16.8176C50.4361 16.5176 50.3938 16.2021 50.413 15.9021C50.413 15.5867 50.4515 15.2866 50.5053 14.9712M53.2287 16.2752C53.4172 17.9177 54.5712 18.8101 56.0637 18.5524C57.0908 18.3832 57.7985 17.5831 57.9486 16.2945C57.987 15.9944 57.987 15.6982 57.9486 15.4174C57.7639 13.9057 56.8677 13.0864 55.579 13.0864C54.2904 13.0864 53.4134 13.9057 53.2287 15.3982C53.2095 15.5482 53.1903 15.6982 53.1903 15.8444C53.1903 15.9906 53.2095 16.1252 53.2287 16.2752Z" fill="white"/>
<path d="M72.6028 11.0169H73.6837V8.55502L75.0801 7.97803V11.0169H77.6727L77.4111 12.0439H75.0801V17.4292L75.1185 18.0293C75.1378 19.1679 75.8455 19.7833 77.2996 19.691C77.4111 19.691 77.5227 19.6718 77.6342 19.6525V20.7334C77.5227 20.7527 77.4111 20.7719 77.2996 20.7719C74.5569 20.995 73.6837 20.0449 73.6837 17.1715V12.0439H72.4336L72.6028 11.0169Z" fill="white"/>
<path d="M78.8535 7.24706L80.269 6.94702V12.5785C80.4383 12.3361 80.6421 12.113 80.8652 11.9092C81.4076 11.4053 82.0615 11.0706 82.7847 10.9206C85.6004 10.3244 87.6892 12.1323 87.6892 15.0596V20.6718H86.2698V15.525C86.2698 13.1555 85.1888 11.963 83.304 12.0015C81.4192 12.0207 80.2652 13.2709 80.2652 15.2827V20.6718H78.8496V7.24706H78.8535Z" fill="white"/>
<path d="M89.6173 13.8555C90.2751 12.236 91.6829 11.1359 93.437 10.8666C96.4258 10.4127 99.0069 12.5553 99.1492 15.5518C99.1531 15.748 99.1492 15.9596 99.1338 16.1673H90.7174C90.7059 16.2288 90.7097 16.3442 90.7059 16.4212C90.7905 17.6636 91.4714 18.7022 92.6407 19.2946C94.0986 20.0447 95.8604 19.7562 97.1798 18.4753C97.2336 18.4137 97.3105 18.356 97.3682 18.2752L98.4222 19.0099C98.1299 19.3754 97.7914 19.687 97.4029 19.9678C96.1065 20.8871 94.5794 21.1641 92.9946 20.7294C90.152 19.9447 88.7556 17.5482 89.3211 14.8248C89.3903 14.494 89.4827 14.1709 89.6057 13.8593M97.7644 15.1402L97.7567 14.9633L97.726 14.744C97.7067 14.5902 97.6875 14.5209 97.626 14.3094C97.2221 12.9015 95.9604 11.936 94.3794 11.9052C92.7754 11.8898 91.4521 12.84 90.9251 14.3978C90.8597 14.6325 90.7905 14.8825 90.779 15.1325L97.7606 15.1402H97.7644Z" fill="white"/>
<path d="M106.72 10.7552C109.366 11.1475 111.009 13.1055 111.009 15.8096C111.009 18.5138 109.366 20.4717 106.72 20.8641C103.196 21.368 100.619 19.0908 100.619 15.8096C100.619 12.5285 103.193 10.2513 106.72 10.7552ZM105.189 19.5947C105.601 19.6678 106.028 19.6678 106.454 19.5947C108.582 19.2216 109.866 17.3752 109.459 14.9865C109.309 14.1479 108.955 13.4747 108.378 12.9362C107.724 12.3207 106.847 11.9861 105.824 11.9861C104.8 11.9861 103.92 12.3207 103.269 12.9362C102.523 13.6286 102.115 14.5979 102.115 15.8096C102.115 17.8253 103.308 19.2793 105.193 19.5947" fill="white"/>
<path d="M112.883 11.0167H114.264V12.3784C114.318 12.3053 114.356 12.2284 114.414 12.1553C115.083 11.2244 115.941 10.7551 117.06 10.7397C117.191 10.7397 117.322 10.7397 117.453 10.759V12.0822C117.322 12.063 117.172 12.0438 117.022 12.0438C116.164 12.0053 115.418 12.3053 114.914 12.8631C114.483 13.367 114.298 13.8901 114.298 14.7479V20.6794H112.879V11.0167H112.883Z" fill="white"/>
<path d="M118.605 11.0168H120.025V16.2944C120.025 18.3254 120.713 19.2793 122.317 19.5755C122.748 19.6525 123.175 19.6525 123.606 19.5563C125.229 19.2563 125.976 18.2869 125.976 16.5905V11.0129H127.376V20.2641C127.376 22.9298 125.437 24.6838 121.483 24.4415C121.24 24.4415 121.017 24.403 120.794 24.3838V23.1914C121.017 23.2298 121.244 23.2452 121.467 23.2644C124.545 23.4337 125.964 22.1835 125.964 20.0179V19.1409C125.891 19.2524 125.795 19.3447 125.722 19.4409C124.883 20.3718 123.914 20.8026 122.567 20.8026C120.236 20.8026 118.782 19.4024 118.632 17.2599C118.613 16.9983 118.613 16.9868 118.613 16.4405V11.0129L118.605 11.0168Z" fill="white"/>
<path d="M130.079 7.45093C131.079 7.45093 131.856 8.22795 131.856 9.1973C131.856 10.1666 131.079 10.9552 130.068 10.9552C129.056 10.9552 128.268 10.1897 128.268 9.1973C128.268 8.20487 129.068 7.45093 130.068 7.45093H130.079ZM130.056 7.80097C129.291 7.80097 128.714 8.42797 128.714 9.1973C128.714 9.96662 129.291 10.5936 130.075 10.5936C130.841 10.6052 131.406 9.97431 131.406 9.1973C131.406 8.42028 130.841 7.80097 130.064 7.80097H130.052H130.056ZM129.791 10.1013H129.387V8.36642C129.549 8.33565 129.772 8.30103 130.056 8.30103C130.387 8.30103 130.537 8.35488 130.664 8.43951C130.76 8.5126 130.833 8.65107 130.833 8.81263C130.833 9.0165 130.683 9.16268 130.472 9.22807V9.25115C130.641 9.305 130.737 9.44348 130.791 9.67812C130.845 9.94354 130.876 10.0512 130.918 10.1051H130.483C130.429 10.0397 130.399 9.89354 130.345 9.68966C130.314 9.49733 130.206 9.41271 129.983 9.41271H129.791V10.1051V10.1013ZM129.802 9.12036H129.995C130.218 9.12036 130.399 9.04728 130.399 8.86649C130.399 8.70493 130.279 8.60107 130.025 8.60107C129.918 8.60107 129.845 8.61261 129.802 8.62415V9.12421V9.12036Z" fill="white"/>
<path d="M72.0499 16.5828C72.0653 16.3212 72.0653 16.0365 72.0653 15.7711C71.9884 12.94 70.0497 10.9436 67.307 10.7743C66.6377 10.7397 65.9761 10.8244 65.3529 11.0398C63.6566 11.6283 62.4987 12.9939 62.1102 14.721C61.5294 17.2867 62.9219 19.9678 65.8184 20.7602C67.7763 21.3103 69.6265 20.7833 71.0575 19.2869C71.1421 19.1946 71.2037 19.1138 71.2883 19.0215L69.188 17.5983C69.138 17.6406 69.1034 17.6906 69.0534 17.7329C68.6649 18.1483 68.2879 18.3907 67.8686 18.5061C67.1685 18.7176 66.4877 18.6599 65.953 18.356C65.1952 17.9483 64.7836 17.2136 64.8221 16.5866H64.8452H72.0499V16.5828ZM67.384 12.7707C68.561 12.79 69.4688 13.5708 69.5996 14.7479V14.8595H64.9183C64.9567 14.7171 64.9798 14.5748 65.0375 14.4363C65.4106 13.3785 66.3261 12.7438 67.384 12.7707Z" fill="white"/>
<path d="M22.7008 21.8181C20.8852 22.0797 19.9774 20.5679 20.5736 19.2601C21.0698 18.1715 21.3122 17.0021 21.3122 15.7558C21.3122 14.5095 21.0891 13.3632 20.5929 12.2746C20.1543 11.2129 20.889 9.43194 22.7047 9.69736C23.6778 9.83969 24.4356 8.92419 24.4356 7.6625C24.4356 6.4008 23.6778 5.18142 22.7047 4.92755C21.6814 4.66213 20.816 5.55455 20.816 6.93164C20.816 9.33193 19.5004 10.2974 18.4349 9.39733C17.4963 8.59723 16.4 8.08178 15.1422 7.88175C13.842 7.67404 12.5611 7.86252 11.4148 8.37028C11.2994 8.42028 11.1763 8.4626 11.0494 8.47798C9.78383 8.64339 7.79128 7.1509 7.79128 4.2967C7.79128 2.50417 6.26032 0.65779 4.25623 0.138496C2.11366 -0.415418 0.25574 0.742416 0.25574 2.76574C0.25574 4.78907 2.10981 6.70084 4.25623 7.01242C7.22583 7.44324 8.72601 9.21269 8.43367 10.6475C8.39905 10.809 8.33366 10.9629 8.24518 11.1014C7.41816 12.3785 6.9181 13.9633 6.9181 15.752C6.9181 17.4599 7.37969 18.9831 8.14132 20.2333C8.22595 20.3717 8.2875 20.5218 8.31442 20.6833C8.55676 21.9989 7.27199 24.0453 4.24854 24.4838C2.10597 24.7954 0.248047 26.7071 0.248047 28.7305C0.248047 30.7538 2.10597 31.9155 4.25238 31.3577C6.25648 30.8384 7.78743 28.9959 7.78743 27.2072C7.78743 24.3492 9.5338 22.6759 10.9724 22.9682C11.0763 22.9875 11.1763 23.0259 11.2725 23.0721C12.4572 23.6298 13.7882 23.8491 15.146 23.6298C16.3962 23.4298 17.4809 22.9298 18.4157 22.1374C19.2888 21.4527 20.8121 22.1797 20.8121 24.58C20.8121 25.9571 21.6776 26.8495 22.7008 26.5841C23.674 26.3302 24.4318 25.1108 24.4318 23.8491C24.4318 22.5874 23.674 21.6719 22.7008 21.8142V21.8181ZM15.0845 20.6795C12.5072 20.968 10.1877 18.7792 10.1877 15.7558C10.1877 12.7323 12.5111 10.5436 15.0845 10.8321C17.3886 11.0937 19.085 13.2863 19.085 15.7558C19.085 18.2253 17.3886 20.4218 15.0845 20.6795Z" fill="white"/>
</g>
<defs>
<clipPath id="clip0_1873_4732">
<rect width="131.612" height="32.0001" fill="white" transform="translate(0.248047)"/>
</clipPath>
</defs>
</svg>
