<svg width="90" height="28" viewBox="0 0 90 28" fill="none" xmlns="http://www.w3.org/2000/svg">
<path fill-rule="evenodd" clip-rule="evenodd" d="M89.1218 4.22034C89.218 4.59824 88.7945 4.96126 88.5743 5.23898C86.7265 7.553 84.6773 10.2905 82.2155 12.0481C82.393 12.9686 82.2988 14.1905 81.9774 14.865C82.6221 15.6863 83.3065 16.4639 83.7053 17.5272C83.1806 20.3044 81.9626 22.4587 80.0155 23.8672C78.1151 25.2399 75.5472 25.7815 72.6341 26.45C67.0013 27.7444 57.7333 29.0209 53.5546 25.6664C49.0297 28.3127 39.8857 28.6618 35.6534 25.5097C32.6451 29.3056 20.7775 28.9723 22.543 21.4401C20.342 23.1014 17.0877 25.3917 13.9832 26.685C10.3828 28.1828 3.56471 28.0141 4.24612 22.9279C4.32845 22.3218 4.58534 21.9796 4.87496 21.4401C3.8216 19.6081 3.15606 18.3365 2.51929 16.7436C1.90929 15.2161 0.978922 13.4774 0.869817 11.3439C0.641688 6.80513 4.19058 3.92774 7.70376 2.57583C9.49606 1.88648 10.9521 0.887675 12.7275 0.386784C15.3807 -0.367033 17.6551 1.08803 17.8306 3.51711C20.9153 2.60459 24.6715 1.59785 28.7451 2.18702C31.9885 -0.327359 38.3225 1.2259 42.4854 2.42011C43.4267 2.69088 44.6933 3.39015 45.3906 3.36039C45.9807 3.33659 47.047 2.53814 47.6659 2.26438C50.5869 0.972975 54.4056 -0.401748 58.5804 0.307435C59.3709 0.440344 60.094 0.857919 60.9351 0.932309C61.5064 0.984877 62.2046 0.806342 62.8196 0.777578C72.5766 0.302475 80.6999 2.91306 89.1228 4.22034H89.1218ZM61.8 3.90889C60.8031 4.02792 60.0959 5.115 59.4443 5.47405C59.4919 5.46909 59.5365 5.46116 59.5216 5.3947C59.6407 4.86108 59.8688 4.43557 59.9144 3.83054C54.6893 1.99559 49.604 4.67759 45.8617 6.72579C42.8683 8.36236 40.1982 10.2866 38.3235 12.2038C39.001 11.0533 39.7201 9.91463 40.5225 8.83945C41.3358 7.74741 42.2414 6.75951 42.9575 5.78748C41.3924 5.37883 39.8232 4.94737 38.2442 4.61212C36.0006 4.13603 32.8802 3.3475 31.0214 4.37804C30.4839 4.6756 30.0435 5.40859 29.5297 5.47405C29.1042 5.52861 28.4039 5.21914 27.8802 5.16162C25.9619 4.94837 24.1964 5.12591 22.4627 5.47405C20.839 5.79839 17.4061 6.37367 16.9657 7.89916C16.6841 8.87912 17.3129 9.82834 17.2018 10.7974C17.0947 11.7496 16.1762 13.0112 15.71 13.771C15.1397 14.7033 14.5595 15.5286 13.5894 15.962C13.0023 13.0459 13.641 10.4522 14.1399 7.9795C14.4474 6.45501 15.0673 4.89481 14.5337 3.36039C13.036 3.15309 11.7753 4.3344 10.2925 4.92456C7.50737 6.03545 4.40581 7.04814 4.01204 10.2479C3.78986 12.0501 4.46929 13.1957 4.95431 14.4752C5.91273 17.0353 7.20685 19.4567 8.80274 21.6761C8.38616 22.4379 7.40719 22.6363 7.309 23.7095C7.75236 24.3343 8.67479 24.4176 9.58632 24.4147C12.2207 24.4087 14.3809 23.0876 16.3379 21.9886C20.5989 19.5982 23.4615 15.9194 26.4678 12.4399C26.9955 11.8279 27.4299 11.091 28.1173 10.718C28.7917 13.8097 27.4795 15.4631 26.5452 17.9963C26.1851 18.9723 25.0494 22.0273 25.6029 23.4744C26.2099 25.0663 31.3785 25.1358 32.7483 24.1032C33.4386 23.5825 33.7134 22.4071 34.0843 21.6761C34.5574 20.7358 34.9671 19.9245 35.34 19.0933C35.3608 22.5222 37.9159 23.5289 40.6782 24.2589C46.5501 25.8063 52.4715 23.0419 55.6752 21.1296C55.2745 23.6698 56.2644 23.9247 58.2669 24.3383C63.4445 25.4036 68.6587 24.1746 72.8701 23.1629C76.7315 22.2365 79.836 21.5819 80.4083 17.7613C79.7904 17.2286 78.246 17.2951 77.1897 17.4498C74.0753 17.9041 71.06 19.4732 66.9041 19.1707C66.1453 19.1161 64.5077 18.8523 64.3897 18.3891C64.2072 17.667 65.5046 17.1612 66.5917 16.9807C69.7061 16.455 74.2092 16.9856 76.7176 16.0384C77.9217 15.5861 79.3748 14.2788 79.229 12.8307C79.1338 11.8527 77.8533 11.3409 76.6382 11.2665C73.2024 11.0523 70.7466 13.0519 67.1411 12.3615C67.5914 11.7942 67.6728 10.8589 68.2381 10.4056C70.8755 10.35 73.4375 10.8718 75.933 10.718C79.4026 10.5018 81.3585 9.04476 83.0001 7.11757C83.1756 6.90928 83.616 6.68611 83.4712 6.33598C77.4446 5.42148 69.229 3.00035 61.799 3.90889H61.8ZM49.8649 9.93347C49.478 11.6891 48.6697 13.6986 48.2164 15.6466C50.7119 15.6823 53.3443 15.1745 55.9103 15.0207C56.2574 14.5585 56.428 13.9198 56.6175 13.2989C57.1322 14.0249 57.4943 15.3838 57.0103 16.4292C53.1132 16.3746 50.3122 19.5565 46.4896 19.5595C44.7776 19.5615 43.3225 18.5805 44.1329 16.6633C45.2775 13.9604 48.1162 12.0719 49.8649 9.93347ZM58.9731 7.03723C59.7071 7.87139 61.3139 7.83568 62.2701 8.44766C60.9797 8.77795 59.355 8.77597 58.1866 9.22826C58.4623 8.51015 58.7093 7.76625 58.9731 7.03822V7.03723Z" fill="white"/>
</svg>
