<svg width="134" height="26" viewBox="0 0 134 26" fill="none" xmlns="http://www.w3.org/2000/svg">
<g clip-path="url(#clip0_1824_5684)">
<path d="M3.6572 20.0237C3.16765 20.0248 2.68658 19.8959 2.26316 19.6502C1.83973 19.4045 1.48912 19.0508 1.24713 18.6252C1.00885 18.2026 0.890018 17.7232 0.903355 17.2382C0.916691 16.7533 1.0617 16.2811 1.32284 15.8723L6.28598 8.07835C6.54 7.65947 6.90065 7.31552 7.33109 7.08164C7.76153 6.84775 8.24634 6.73232 8.736 6.74711C9.22528 6.75884 9.70266 6.90035 10.1193 7.15717C10.5359 7.41399 10.8768 7.77689 11.1072 8.20874C11.5698 9.08361 11.512 10.1362 10.9578 10.9574L5.99786 18.7514C5.74634 19.1433 5.39994 19.4654 4.99077 19.6879C4.5816 19.9103 4.1229 20.0258 3.6572 20.0237Z" fill="white"/>
<path d="M12.1698 20.0234C11.1687 20.0234 10.2476 19.4882 9.76391 18.628C9.52616 18.2066 9.4076 17.7284 9.42094 17.2447C9.43427 16.7611 9.57901 16.2901 9.83961 15.8825L14.7933 8.1064C15.0436 7.68163 15.4029 7.33155 15.8341 7.09248C16.2653 6.85341 16.7526 6.73405 17.2454 6.74677C18.2549 6.76885 19.1697 7.33352 19.6323 8.21681C20.0918 9.10009 20.0246 10.159 19.4536 10.9781L14.501 18.7542C14.2502 19.1445 13.9052 19.4653 13.4978 19.6871C13.0904 19.909 12.6336 20.0246 12.1698 20.0234Z" fill="white"/>
<path d="M20.4927 20.0891C21.9039 20.0891 23.0478 18.9691 23.0478 17.5875C23.0478 16.2059 21.9039 15.0859 20.4927 15.0859C19.0815 15.0859 17.9375 16.2059 17.9375 17.5875C17.9375 18.9691 19.0815 20.0891 20.4927 20.0891Z" fill="white"/>
<path d="M131.496 15.2302C132.268 15.2302 132.729 15.7791 132.729 16.6782V19.7592H133.778V16.6077C133.778 15.0788 133.057 14.1924 131.703 14.1924C131.173 14.1924 130.332 14.3375 129.83 15.3123C129.714 15.0247 129.522 14.7742 129.274 14.5872C129.026 14.4002 128.733 14.2837 128.424 14.2502C128.23 14.2147 128.033 14.203 127.836 14.2155C127.405 14.2502 126.637 14.5183 126.35 15.1261V14.3091H125.3V19.7592H126.35V16.818C126.35 15.674 127.099 15.2302 127.848 15.2302C128.551 15.2302 129.012 15.7676 129.012 16.6666V19.7592H130.055V16.818C130.055 15.9074 130.602 15.2197 131.496 15.2302ZM121.449 18.8485C121.928 18.8591 122.391 18.6677 122.726 18.3207C123.063 17.9737 123.242 17.5015 123.224 17.0168C123.224 15.919 122.416 15.2302 121.449 15.2302C120.48 15.2302 119.674 15.919 119.674 17.0168C119.655 17.5005 119.834 17.9716 120.168 18.3175C120.502 18.6645 120.963 18.857 121.44 18.8485H121.449ZM121.449 19.8706C119.916 19.8706 118.636 18.7381 118.636 17.0105C118.636 15.2828 119.916 14.1861 121.449 14.1861C122.982 14.1861 124.272 15.2828 124.272 17.0105C124.272 18.7381 122.974 19.8759 121.441 19.8759L121.449 19.8706ZM113.236 17.0105L113.226 17.0168C113.226 15.2891 114.539 14.1924 116.083 14.1861C116.471 14.1786 116.856 14.2526 117.213 14.4033C117.57 14.554 117.892 14.778 118.158 15.0609L117.363 15.7381C117.194 15.5723 116.994 15.4416 116.774 15.3535C116.554 15.2655 116.319 15.2218 116.083 15.225C115.115 15.225 114.274 15.9137 114.274 17.0105C114.274 17.7518 114.715 18.4195 115.391 18.7034C116.067 18.9873 116.845 18.8296 117.363 18.306L118.169 18.9831C117.903 19.269 117.58 19.4957 117.22 19.6486C116.861 19.8014 116.473 19.8771 116.083 19.8706C114.551 19.8706 113.236 18.7381 113.236 17.0105ZM109.879 18.7129C109.878 18.6176 109.896 18.523 109.931 18.4346C109.966 18.3461 110.019 18.2655 110.086 18.1974C110.152 18.1292 110.231 18.0749 110.319 18.0374C110.407 17.9999 110.501 17.98 110.596 17.9789C110.691 17.98 110.785 17.9999 110.873 18.0374C110.961 18.0749 111.04 18.1292 111.107 18.1974C111.173 18.2655 111.226 18.3461 111.261 18.4346C111.297 18.523 111.314 18.6176 111.313 18.7129C111.304 18.8974 111.224 19.0714 111.091 19.1994C110.958 19.3274 110.781 19.3997 110.596 19.4017C110.411 19.3997 110.234 19.3274 110.101 19.1994C109.968 19.0714 109.888 18.8974 109.879 18.7129Z" fill="white"/>
<path fill-rule="evenodd" clip-rule="evenodd" d="M112.748 7.38069H109.014L106.397 14.1284L103.793 7.38069H100.059L104.599 18.0432L101.775 25.0927H105.482L112.748 7.38069ZM90.0395 13.3113C90.0395 15.0148 91.5284 16.1357 92.9911 16.1357C94.4285 16.1357 95.8407 15.0926 95.8407 13.3103C95.8407 11.5279 94.4285 10.4838 92.9911 10.4838C91.5284 10.4838 90.0395 11.6057 90.0395 13.3103V13.3113ZM95.8407 19.2651V17.916C95.0836 19.0621 93.3171 19.4954 92.4107 19.4954C89.4096 19.4954 86.4076 17.1294 86.4076 13.3103C86.4076 9.49216 89.4086 7.12622 92.4107 7.12622C93.1667 7.12622 94.9332 7.37858 95.8407 8.70351V7.38489H99.3212V19.2672L95.8407 19.2661V19.2651ZM85.417 19.2651H81.9365V17.7887C81.3551 18.8823 79.945 19.5195 78.4813 19.5195C75.454 19.5195 72.78 17.1021 72.78 13.3586C72.78 9.54473 75.454 7.12411 78.4813 7.12411C79.9429 7.12411 81.3572 7.734 81.9365 8.82864V0.907471H85.417V19.2651ZM81.8608 13.284C81.8608 11.5027 80.5748 10.4585 79.1374 10.4585C77.6485 10.4585 76.4119 11.5784 76.4119 13.284C76.4119 15.0442 77.6485 16.1589 79.1364 16.1589C80.6011 16.161 81.8608 14.9896 81.8608 13.284ZM64.1744 12.9769C64.1744 11.1704 65.1082 10.5595 66.3437 10.5595C67.5287 10.5595 68.3868 11.3481 68.3868 12.9254V19.263H71.8925V12.163C71.8925 8.77922 70.2269 7.12411 67.5782 7.12411C66.1912 7.12411 64.8043 7.91276 64.1734 9.1094V7.38069H60.6697V19.263H64.1744V12.9769ZM53.551 19.467C50.2219 19.467 47.4449 17.0243 47.4449 13.2829C47.4449 9.53948 50.2188 7.12096 53.551 7.12096C56.8832 7.12096 59.6813 9.53948 59.6813 13.2829C59.6813 17.0264 56.8801 19.468 53.551 19.468V19.467ZM53.551 16.0074C55.0126 16.0074 56.225 14.937 56.225 13.284C56.225 11.6804 55.0136 10.5857 53.551 10.5857C53.1988 10.5802 52.8492 10.6465 52.5234 10.7804C52.1977 10.9144 51.9026 11.1133 51.6562 11.3649C51.4083 11.6179 51.2138 11.9182 51.0843 12.2479C50.9548 12.5776 50.8929 12.9299 50.9022 13.284C50.9033 14.9391 52.1136 16.0074 53.551 16.0074ZM41.16 10.5605C42.1936 10.5605 43.1021 11.3754 43.1021 12.9265V19.2651H46.5826V12.5164C46.5826 8.92854 44.8382 7.12201 42.0422 7.12201C41.2115 7.12201 39.6469 7.37438 38.5112 9.23348C37.8551 7.85913 36.5943 7.1462 34.731 7.1462C34.0841 7.14291 33.45 7.326 32.9043 7.67359C32.3587 8.02118 31.9248 8.51855 31.6543 9.10625V7.38174H28.1465V19.264H31.6512V12.9769C31.6512 11.1704 32.6354 10.5595 33.6943 10.5595C34.7037 10.5595 35.6101 11.3481 35.6364 12.8497V19.264H39.1421V12.9769C39.1421 11.2493 40.0506 10.5616 41.16 10.5616V10.5605Z" fill="white"/>
</g>
<defs>
<clipPath id="clip0_1824_5684">
<rect width="132.876" height="24.1852" fill="white" transform="translate(0.902344 0.907471)"/>
</clipPath>
</defs>
</svg>
