<svg width="65" height="37" viewBox="0 0 65 37" fill="none" xmlns="http://www.w3.org/2000/svg">
<g clip-path="url(#clip0_3313_6462)">
<path d="M49.4903 8.41241C48.7328 8.41282 47.9923 8.18859 47.3623 7.76807C46.7323 7.34756 46.2412 6.74966 45.951 6.04999C45.6609 5.35032 45.5847 4.58032 45.7323 3.83738C45.8798 3.09444 46.2443 2.41194 46.7798 1.8762C47.3152 1.34046 47.9975 0.975558 48.7404 0.827638C49.4832 0.679717 50.2533 0.755428 50.9531 1.04519C51.6529 1.33496 52.2511 1.82576 52.672 2.45553C53.0928 3.08529 53.3174 3.82572 53.3174 4.58316C53.3158 5.59788 52.9121 6.5706 52.1948 7.28831C51.4775 8.00602 50.505 8.41022 49.4903 8.41241Z" fill="white"/>
<path d="M60.7607 24.5039H56.6187L55.6391 15.5179H55.4196L52.28 24.5039H46.7111L43.5756 15.5179H43.3561L42.3786 24.5039H38.2366C38.2366 24.5039 39.065 16.9448 39.4046 13.888C39.7132 11.0425 41.2023 9.59277 43.8241 9.59277H45.7046L49.4158 20.0782H49.5753L53.2865 9.59277H55.1503C57.7598 9.59277 59.2488 11.0425 59.576 13.888C59.9115 16.8412 60.7607 24.5039 60.7607 24.5039ZM13.1901 9.59277L20.2915 24.5039H14.9981L13.6623 21.3125H6.27923L4.94137 24.5039H0C0 24.5039 3.54346 17.1705 4.75084 14.4886C6.17361 11.3386 7.38928 9.59277 10.3425 9.59277H13.1901ZM9.88896 12.6993L7.40377 18.5374H12.5398L10.0505 12.6993H9.88896ZM36.7662 20.2915C36.7662 22.9196 34.8112 24.508 31.1497 24.508H21.3767V13.7844C21.3767 11.4173 22.7415 9.59277 25.703 9.59277H30.7355C34.2148 9.59277 35.8819 10.9948 35.8819 13.3827C35.8819 14.9753 34.8713 16.0108 33.4816 16.5161V16.6341C34.4653 16.748 36.7662 17.7877 36.7662 20.2873V20.2915ZM29.4515 15.5862C30.5885 15.5862 31.4355 15.1099 31.4355 14.0226C31.4355 13.0596 30.7396 12.4569 29.4515 12.4569H25.85V15.5862H29.4515ZM29.6379 21.6459C30.9923 21.6459 32.0009 21.1137 32.0009 19.9187C32.0009 18.6451 30.9322 18.1667 29.6379 18.1667H25.85V21.6459H29.6379Z" fill="white"/>
<path d="M21.3767 29.4888H22.99C24.1767 29.4888 24.5722 30.1101 24.5722 30.8453C24.573 31.035 24.5298 31.2224 24.4461 31.3927C24.3624 31.563 24.2404 31.7116 24.0897 31.8269C24.2962 31.9408 24.466 32.1111 24.5794 32.318C24.6927 32.5248 24.7448 32.7596 24.7296 32.9949C24.7296 33.7923 24.2947 34.4322 23.0293 34.4322H21.3726L21.3767 29.4888ZM23.0169 30.1473H22.0746V31.5453H23.0687C23.6755 31.5453 23.8267 31.189 23.8267 30.8453C23.8267 30.5015 23.7086 30.1473 23.0107 30.1473H23.0169ZM22.0746 33.7716H23.0563C23.8329 33.7716 23.9841 33.376 23.9841 32.9929C23.9841 32.4461 23.7418 32.2018 23.0687 32.2018H22.0746V33.7716Z" fill="white"/>
<path d="M26.0946 33.4669C26.0946 33.7776 26.3244 33.8811 26.6268 33.8811C26.8901 33.8859 27.1511 33.8321 27.391 33.7237V31.1309H28.0703V34.4258H27.6147L27.5505 34.2415C27.2746 34.4176 26.9541 34.5111 26.6268 34.5107C25.8171 34.5107 25.4153 34.1151 25.4153 33.4504V31.1309H26.0946V33.4669Z" fill="white"/>
<path d="M29.2962 29.5737C29.3876 29.5733 29.4771 29.6001 29.5533 29.6506C29.6295 29.7011 29.6891 29.773 29.7243 29.8574C29.7596 29.9417 29.7691 30.0347 29.7515 30.1244C29.7339 30.2141 29.6901 30.2966 29.6256 30.3614C29.561 30.4262 29.4788 30.4704 29.3891 30.4884C29.2995 30.5064 29.2065 30.4973 29.122 30.4624C29.0375 30.4275 28.9652 30.3683 28.9144 30.2924C28.8636 30.2164 28.8364 30.127 28.8364 30.0356C28.8362 29.975 28.8478 29.915 28.8708 29.859C28.8938 29.803 28.9276 29.752 28.9704 29.7091C29.0131 29.6662 29.0638 29.6322 29.1198 29.6089C29.1757 29.5857 29.2356 29.5737 29.2962 29.5737ZM29.758 34.5151C29.2361 34.5151 28.9607 34.308 28.9607 33.7178V31.1311H29.6255V33.7343C29.6255 33.8524 29.6917 33.8855 29.8823 33.8855V34.5068L29.758 34.5151Z" fill="white"/>
<path d="M31.4646 34.515C30.9427 34.515 30.6672 34.308 30.6672 33.7177V29.4888H31.332V33.7384C31.332 33.8565 31.3983 33.8896 31.5888 33.8896V34.5109L31.4646 34.515Z" fill="white"/>
<path d="M35.0742 34.4301H34.6331L34.5668 34.2458C34.2941 34.412 33.983 34.5048 33.6638 34.515C32.5517 34.515 32.2349 33.8171 32.2349 32.7837C32.2349 31.7503 32.5517 31.0503 33.6638 31.0503C33.9226 31.0531 34.1774 31.1139 34.4094 31.2284V29.4888H35.0742V34.4301ZM33.6638 31.6757C33.0198 31.6757 32.9204 32.1831 32.9204 32.7837C32.9204 33.3843 33.0198 33.8896 33.6638 33.8896C33.9212 33.8958 34.1765 33.8419 34.4094 33.7322V31.8269C34.3309 31.7907 34.2491 31.7623 34.165 31.742C34.0015 31.6984 33.8331 31.6761 33.6638 31.6757Z" fill="white"/>
<path d="M36.3003 29.5737C36.3918 29.5733 36.4813 29.6001 36.5575 29.6506C36.6337 29.7011 36.6932 29.773 36.7285 29.8574C36.7638 29.9417 36.7732 30.0347 36.7556 30.1244C36.738 30.2141 36.6942 30.2966 36.6297 30.3614C36.5652 30.4262 36.4829 30.4704 36.3933 30.4884C36.3036 30.5064 36.2107 30.4973 36.1262 30.4624C36.0417 30.4275 35.9694 30.3683 35.9186 30.2924C35.8677 30.2164 35.8406 30.127 35.8406 30.0356C35.8403 29.975 35.852 29.915 35.875 29.859C35.898 29.803 35.9318 29.752 35.9745 29.7091C36.0172 29.6662 36.068 29.6322 36.1239 29.6089C36.1798 29.5857 36.2398 29.5737 36.3003 29.5737ZM36.7622 34.5151C36.2403 34.5151 35.9648 34.308 35.9648 33.7178V31.1311H36.6296V33.7343C36.6296 33.8524 36.6959 33.8855 36.8864 33.8855V34.5068L36.7622 34.5151Z" fill="white"/>
<path d="M39.6469 32.0984C39.6469 31.7878 39.417 31.6843 39.1146 31.6843C38.8514 31.6795 38.5904 31.7333 38.3504 31.8416V34.4387H37.6711V31.1313H38.1288L38.193 31.3156C38.4689 31.1395 38.7894 31.046 39.1167 31.0464C39.9264 31.0464 40.3282 31.4419 40.3282 32.1067V34.4262H39.6489L39.6469 32.0984Z" fill="white"/>
<path d="M42.3993 33.6163C42.3227 33.6205 42.246 33.6205 42.1694 33.6163C42.0907 33.6701 42.0037 33.7488 42.0037 33.8234C42.0037 33.8979 42.0369 33.929 42.1218 33.9414L43.1697 34.0657C43.791 34.1381 44.1182 34.395 44.1182 35.008C44.1182 35.8364 43.3147 36.1739 42.3993 36.1739C41.4839 36.1739 40.9041 35.8591 40.9041 35.1012C40.909 34.929 40.9639 34.7619 41.0621 34.6203C41.1602 34.4788 41.2975 34.3688 41.457 34.3038C41.374 34.1915 41.3323 34.054 41.339 33.9145C41.3415 33.8237 41.3634 33.7344 41.403 33.6527C41.4426 33.5709 41.4991 33.4985 41.5688 33.4402C41.2064 33.2103 41.0822 32.8086 41.0822 32.353C41.0822 31.655 41.3845 31.0689 42.3993 31.0689C42.5999 31.0669 42.7996 31.0956 42.9916 31.1539H44.054V31.6012L43.6046 31.7275C43.6826 31.9252 43.7206 32.1364 43.7165 32.3488C43.7206 33.0322 43.4203 33.6163 42.3993 33.6163ZM42.1922 34.5378C41.8443 34.6497 41.5709 34.8154 41.5709 35.0846C41.5709 35.4408 41.8484 35.534 42.3993 35.534C42.9502 35.534 43.4348 35.4139 43.4348 34.9914C43.4348 34.7615 43.3354 34.6704 43.0517 34.6373L42.1922 34.5378ZM42.3993 32.9888C43.0061 32.9888 43.0786 32.6719 43.0786 32.3302C43.0786 31.9885 43.0061 31.6716 42.3993 31.6716C41.7925 31.6716 41.7283 31.9885 41.7283 32.3302C41.7283 32.6719 41.7925 32.995 42.3993 32.995V32.9888Z" fill="white"/>
<path d="M48.9374 29.4888H49.6954L47.9413 34.515H47.4608L45.7087 29.4888H46.4667L47.7093 33.3553L48.9374 29.4888Z" fill="white"/>
<path d="M50.762 31.6759C50.378 31.6859 49.9979 31.7557 49.6354 31.883V31.2617C49.9976 31.1349 50.3782 31.0684 50.762 31.0649C51.7768 31.0649 52.0398 31.5268 52.0398 32.2102V34.4448H51.5904L51.5304 34.2729C51.2505 34.4366 50.933 34.5251 50.6088 34.5297C49.6934 34.5297 49.4097 33.9767 49.4097 33.4031C49.4097 32.8833 49.652 32.4214 50.6274 32.3427L51.373 32.2827V32.2164C51.3709 31.8478 51.2383 31.6759 50.762 31.6759ZM50.617 32.8874C50.2029 32.9268 50.0827 33.1587 50.0827 33.3886C50.0827 33.6185 50.1366 33.8898 50.617 33.8898C50.8809 33.8838 51.1392 33.8127 51.3688 33.6827V32.8191L50.617 32.8874Z" fill="white"/>
<path d="M53.7297 34.515C53.2078 34.515 52.9324 34.308 52.9324 33.7177V29.4888H53.5972V33.7384C53.5972 33.8565 53.6634 33.8896 53.854 33.8896V34.5109L53.7297 34.515Z" fill="white"/>
<path d="M55.2126 33.4669C55.2126 33.7776 55.4425 33.8811 55.7448 33.8811C56.0087 33.8855 56.2703 33.8318 56.5111 33.7237V31.1309H57.1821V34.4258H56.7286L56.6623 34.2415C56.3864 34.4176 56.0659 34.5111 55.7386 34.5107C54.9289 34.5107 54.5271 34.1151 54.5271 33.4504V31.1309H55.2064L55.2126 33.4669Z" fill="white"/>
<path d="M58.6318 33.0985C58.6856 33.5541 58.8761 33.8896 59.4042 33.8896C59.7951 33.8978 60.1826 33.8164 60.5371 33.6515V34.2914C60.1801 34.447 59.7936 34.5233 59.4042 34.5151C58.29 34.5151 57.9338 33.8233 57.9338 32.7837C57.9338 31.7441 58.29 31.0503 59.4042 31.0503C60.5557 31.0503 60.7152 31.86 60.7152 32.7837V33.0985H58.6318ZM58.6318 32.5124H60.0214C60.0214 32.0775 59.9489 31.684 59.4105 31.684C58.872 31.684 58.6773 32.0382 58.6318 32.5124Z" fill="white"/>
<path d="M63.6374 21.8447C63.9069 21.8447 64.1704 21.9246 64.3944 22.0744C64.6185 22.2241 64.7932 22.4369 64.8963 22.6859C64.9995 22.935 65.0265 23.2089 64.9739 23.4733C64.9213 23.7376 64.7915 23.9804 64.6009 24.171C64.4104 24.3616 64.1676 24.4914 63.9032 24.544C63.6389 24.5965 63.3649 24.5696 63.1159 24.4664C62.8669 24.3633 62.6541 24.1886 62.5043 23.9645C62.3546 23.7404 62.2747 23.477 62.2747 23.2074C62.2752 22.8462 62.419 22.4999 62.6744 22.2445C62.9298 21.989 63.2761 21.8453 63.6374 21.8447ZM63.6374 24.3734C63.8681 24.3738 64.0937 24.3058 64.2857 24.1779C64.4777 24.05 64.6275 23.8681 64.7161 23.6551C64.8046 23.4421 64.828 23.2075 64.7833 22.9812C64.7385 22.7549 64.6276 22.547 64.4646 22.3837C64.3017 22.2204 64.0939 22.1092 63.8677 22.064C63.6414 22.0189 63.4069 22.0418 63.1937 22.13C62.9805 22.2182 62.7983 22.3677 62.6701 22.5594C62.5419 22.7512 62.4735 22.9767 62.4735 23.2074C62.4735 23.5163 62.596 23.8126 62.8142 24.0312C63.0325 24.2498 63.3285 24.3728 63.6374 24.3734ZM63.3412 23.9882H63.1445V22.4163H63.7471C64.1033 22.4163 64.2421 22.5696 64.2421 22.8533C64.2463 22.9087 64.2393 22.9644 64.2216 23.0171C64.2038 23.0697 64.1757 23.1183 64.1387 23.1598C64.1018 23.2014 64.0569 23.2351 64.0067 23.2589C63.9565 23.2827 63.9021 23.2962 63.8465 23.2986L64.3167 23.9882H64.093L63.6229 23.2986H63.3412V23.9882ZM63.3412 23.1225H63.6022C63.8093 23.1225 64.0536 23.1225 64.0536 22.8533C64.0536 22.6462 63.8693 22.5924 63.7016 22.5924H63.3495L63.3412 23.1225Z" fill="white"/>
</g>
<defs>
<clipPath id="clip0_3313_6462">
<rect width="65" height="35.4201" fill="white" transform="translate(0 0.753906)"/>
</clipPath>
</defs>
</svg>
