<svg width="90" height="28" viewBox="0 0 90 28" fill="none" xmlns="http://www.w3.org/2000/svg">
<g clip-path="url(#clip0_1830_11599)">
<path d="M57.8706 6.81119C53.9936 6.82981 50.8353 10.0164 50.8531 13.984C50.8709 17.9517 54.0607 21.1083 57.9377 21.0905C61.8147 21.0727 64.9738 17.8853 64.9552 13.9193C64.9366 9.95325 61.7475 6.79419 57.8689 6.81281L57.8706 6.81119ZM57.924 18.1807C56.8248 18.1872 55.7686 17.7558 54.9875 16.9828C54.2064 16.2099 53.7734 15.1568 53.7613 14.0577C53.7491 12.9585 54.1862 11.9023 54.9592 11.1212C55.7321 10.3401 56.7852 9.90712 57.8843 9.89498C58.9835 9.88284 60.0397 10.3199 60.8208 11.0929C61.6019 11.8658 62.0349 12.9189 62.047 14.018C62.0583 16.2236 60.1288 18.1694 57.924 18.1807ZM73.5776 10.1742C71.5501 10.1839 69.971 11.8658 69.9807 13.8934L70.0131 20.6801L66.9277 20.6947L66.8653 7.20779L69.9507 7.19322L69.9613 9.30817C69.9613 9.30817 71.2725 7.18756 73.9176 7.17542L74.7998 7.17056L74.8144 10.1669L73.5776 10.1742ZM42.7997 7.32273L45.1356 16.5676L47.5605 7.30006L50.6459 7.2863L46.8288 20.7991L43.8324 20.8129L41.4091 11.3932L39.0732 20.8347L36.076 20.8485L32.0469 7.38019L35.0432 7.36643L37.7304 16.6097L39.8915 7.34377L42.7997 7.32273ZM83.8156 13.3009C85.9241 12.0577 87.4134 9.75819 87.4012 7.1139L84.3158 7.12847C84.3272 9.42067 82.4834 11.2807 80.2802 11.2888L79.8391 11.2904L79.7905 0.625L76.7051 0.639568L76.7998 20.6478L79.8836 20.634L79.8545 14.2884L80.2066 14.2867C80.5595 14.2851 80.9132 14.46 81.003 14.7238L85.3494 20.6081L88.9634 20.5919L83.8156 13.3009Z" fill="white"/>
<path d="M24.9045 6.96659C21.5561 6.98278 19.0097 9.19809 18.0571 12.7278C16.4585 10.2673 15.2112 7.45304 14.4957 5.07666L10.9708 5.09285L11.0145 14.4357C11.0184 15.324 10.6694 16.1775 10.0442 16.8085C9.41906 17.4396 8.56895 17.7966 7.68064 17.8011C6.79234 17.805 5.93885 17.456 5.30778 16.8308C4.6767 16.2056 4.31968 15.3555 4.31518 14.4672L4.27066 5.12441L0.744141 5.1406L0.787848 14.4834C0.806464 18.3604 3.90401 21.4329 7.69521 21.4143C11.4864 21.3956 14.5572 18.2965 14.5394 14.4187L14.5313 12.8323C15.242 14.2382 16.1307 15.7323 17.1076 17.0508L14.9522 27.373L18.5654 27.3568L20.1194 19.857C21.5334 20.7327 23.1141 21.2532 24.9725 21.2443C28.8511 21.2257 32.0102 18.0391 31.9899 13.984C31.9752 12.1157 31.2219 10.3291 29.8946 9.01428C28.5673 7.69935 26.7737 6.96294 24.9053 6.96578L24.9045 6.96659ZM24.9547 17.632C23.5447 17.6384 22.1324 17.0282 20.9822 16.0634L21.3278 14.6526V14.5716C21.5868 13.071 22.3655 10.5117 25.0106 10.5004C25.9432 10.4989 26.8387 10.8658 27.5022 11.5212C28.1656 12.1767 28.5435 13.0676 28.5533 14.0002C28.4739 16.0277 26.8074 17.6222 24.9555 17.6312L24.9547 17.632Z" fill="white"/>
</g>
<defs>
<clipPath id="clip0_1830_11599">
<rect width="89.0332" height="27.5194" fill="white" transform="translate(0.335938 0.240479)"/>
</clipPath>
</defs>
</svg>
