<svg width="112" height="25" viewBox="0 0 112 25" fill="none" xmlns="http://www.w3.org/2000/svg">
<path d="M10.5852 9.25624C10.5852 10.3359 10.1266 11.2909 9.37629 12.0383C8.54256 12.8688 7.33365 13.0764 7.33365 13.7823C7.33365 14.7374 8.87605 14.4467 10.3559 15.9208C11.3356 16.8966 11.94 18.1839 11.94 19.6787C11.94 22.6269 9.56388 24.973 6.58329 24.973C3.6027 24.973 1.22656 22.629 1.22656 19.6808C1.22656 18.1859 1.83102 16.8987 2.81065 15.9229C4.29053 14.4488 5.83293 14.7395 5.83293 13.7844C5.83293 13.0785 4.62402 12.8709 3.79029 12.0404C3.03993 11.293 2.58138 10.3379 2.58138 9.21679C2.58138 7.05755 4.35306 5.31355 6.52076 5.31355C6.93763 5.31355 7.31281 5.37584 7.62545 5.37584C8.18822 5.37584 8.48003 5.12669 8.48003 4.73222C8.48003 4.50384 8.37581 4.21317 8.37581 3.90174C8.37581 3.19584 8.98027 2.6145 9.70978 2.6145C10.4393 2.6145 11.0229 3.2166 11.0229 3.94326C11.0229 4.71146 10.4185 5.06441 9.9599 5.2305C9.58473 5.35507 9.29292 5.52117 9.29292 5.89489C9.29292 6.59871 10.5852 7.28386 10.5852 9.25624ZM10.1683 19.6808C10.1683 17.6254 8.64678 15.9644 6.58329 15.9644C4.5198 15.9644 2.99824 17.6254 2.99824 19.6808C2.99824 21.7155 4.5198 23.3972 6.58329 23.3972C8.64678 23.3972 10.1683 21.7134 10.1683 19.6808ZM8.93858 9.21472C8.93858 7.90671 7.87557 6.8271 6.58329 6.8271C5.29101 6.8271 4.228 7.90671 4.228 9.21472C4.228 10.5227 5.29101 11.6023 6.58329 11.6023C7.87557 11.6023 8.93858 10.5227 8.93858 9.21472Z" fill="white"/>
<path d="M18.0882 5.51932C18.7552 5.51932 19.2554 6.0176 19.2554 6.64046C19.2554 7.26332 18.776 7.7616 18.109 7.7616C17.4212 7.7616 17.046 7.3256 16.3582 7.3256C15.6912 7.3256 15.1701 7.80313 15.1701 8.61284V15.1528C15.1701 15.6511 14.7741 16.0456 14.2739 16.0456C13.7945 16.0456 13.3984 15.6511 13.3984 15.1528V6.34979C13.3984 5.85151 13.7945 5.45703 14.2739 5.45703C15.1701 5.45703 15.0034 6.30827 15.8996 6.30827C16.7542 6.30827 17.0669 5.51932 18.0882 5.51932Z" fill="white"/>
<path d="M20.0273 10.7516C20.0273 7.61656 22.195 5.35352 25.1756 5.35352C27.9061 5.35352 30.0738 7.34666 30.0738 10.0665C30.0738 10.7101 29.6569 11.1461 29.0525 11.1461H22.2784C21.9866 11.1461 21.8824 11.2499 21.8824 11.4783C21.8824 11.9973 22.2993 12.9524 22.9246 13.5752C23.5499 14.1981 24.4044 14.5718 25.6133 14.5718C26.5096 14.5718 27.3017 14.2396 27.9061 13.8036C28.0937 13.6583 28.3021 13.5752 28.5106 13.5752C28.9483 13.5752 29.3026 13.9697 29.3026 14.3849C29.3026 14.6341 29.2192 14.8417 29.0108 15.0286C28.1354 15.7552 26.9056 16.1497 25.5717 16.1497C22.341 16.1497 20.0273 13.8244 20.0273 10.7516ZM27.4059 7.7619C26.8223 7.18056 26.0719 6.8899 25.1756 6.8899C24.2794 6.8899 23.4456 7.24285 22.8412 7.84495C22.3618 8.32247 22.0283 8.94533 22.0283 9.36057C22.0283 9.56818 22.1534 9.65123 22.4243 9.65123H27.8436C28.0937 9.65123 28.2188 9.56818 28.2188 9.36057C28.2188 8.86228 27.8227 8.17714 27.4059 7.7619Z" fill="white"/>
<path d="M31.8652 10.7516C31.8652 7.61656 34.0329 5.35352 37.0135 5.35352C39.744 5.35352 41.9117 7.34666 41.9117 10.0665C41.9117 10.7101 41.4948 11.1461 40.8904 11.1461H34.1163C33.8245 11.1461 33.7203 11.2499 33.7203 11.4783C33.7203 11.9973 34.1372 12.9524 34.7625 13.5752C35.3878 14.1981 36.2423 14.5718 37.4512 14.5718C38.3475 14.5718 39.1395 14.2396 39.744 13.8036C39.9316 13.6583 40.14 13.5752 40.3485 13.5752C40.7862 13.5752 41.1405 13.9697 41.1405 14.3849C41.1405 14.6341 41.0571 14.8417 40.8487 15.0286C39.9733 15.7552 38.7435 16.1497 37.4096 16.1497C34.1788 16.1497 31.8652 13.8244 31.8652 10.7516ZM39.2438 7.7619C38.6601 7.18056 37.9098 6.8899 37.0135 6.8899C36.1173 6.8899 35.2835 7.24285 34.6791 7.84495C34.1997 8.32247 33.8662 8.94533 33.8662 9.36057C33.8662 9.56818 33.9913 9.65123 34.2622 9.65123H39.6815C39.9316 9.65123 40.0567 9.56818 40.0567 9.36057C40.0567 8.86228 39.6606 8.17714 39.2438 7.7619Z" fill="white"/>
<path d="M52.3547 16.0459C51.8545 16.0459 51.4585 15.6514 51.4585 15.1531V9.5059C51.4585 8.0318 50.2913 6.91066 48.7905 6.91066C47.269 6.91066 46.1018 8.05256 46.1018 9.5059V15.1531C46.1018 15.6514 45.7057 16.0459 45.2055 16.0459C44.7261 16.0459 44.3301 15.6514 44.3301 15.1531V6.32933C44.3301 5.8518 44.7261 5.45733 45.1847 5.45733C46.0601 5.45733 46.0184 6.24628 46.4769 6.24628C46.9355 6.24628 47.5608 5.35352 49.1866 5.35352C51.4585 5.35352 53.2302 7.24285 53.2302 9.5059V15.1531C53.2302 15.6514 52.8341 16.0459 52.3547 16.0459Z" fill="white"/>
<path d="M64.3196 16.0457C63.8194 16.0457 63.4233 15.6512 63.4233 15.1529V9.50566C63.4233 8.03156 62.2561 6.91042 60.7554 6.91042C59.2338 6.91042 58.0666 8.05232 58.0666 9.50566V15.1529C58.0666 15.6512 57.6706 16.0457 57.1703 16.0457C56.6909 16.0457 56.2949 15.6512 56.2949 15.1529V1.15936C56.2949 0.661078 56.6909 0.266602 57.1703 0.266602C57.6706 0.266602 58.0666 0.661078 58.0666 1.15936V5.74775C58.0666 5.99689 58.1708 6.14222 58.4418 6.14222C58.9003 6.14222 59.5256 5.35327 61.1514 5.35327C63.4233 5.35327 65.195 7.24261 65.195 9.50566V15.1529C65.195 15.6512 64.799 16.0457 64.3196 16.0457Z" fill="white"/>
<path d="M67.6328 10.7516C67.6328 7.74114 70.0506 5.35352 73.0938 5.35352C76.1369 5.35352 78.5547 7.74114 78.5547 10.7516C78.5547 13.7621 76.1369 16.1497 73.0938 16.1497C70.0527 16.1497 67.6328 13.7621 67.6328 10.7516ZM76.7851 10.7516C76.7851 8.65466 75.2219 6.93142 73.0958 6.93142C70.9907 6.93142 69.4274 8.65466 69.4274 10.7516C69.4274 12.8486 70.9907 14.5718 73.0958 14.5718C75.2219 14.5718 76.7851 12.8486 76.7851 10.7516Z" fill="white"/>
<path d="M81.8676 5.45703C82.3678 5.45703 82.7639 5.85151 82.7639 6.34979V11.997C82.7639 13.4711 83.9311 14.5923 85.4318 14.5923C86.9534 14.5923 88.1206 13.4504 88.1206 11.997V6.34979C88.1206 5.85151 88.5166 5.45703 89.0169 5.45703C89.4963 5.45703 89.8923 5.85151 89.8923 6.34979V15.1736C89.8923 15.6511 89.4963 16.0456 89.0377 16.0456C88.1623 16.0456 88.204 15.2567 87.7454 15.2567C87.2869 15.2567 86.6616 16.1494 85.0358 16.1494C82.7639 16.1494 80.9922 14.2601 80.9922 11.997V6.34979C80.9943 5.85151 81.3882 5.45703 81.8676 5.45703Z" fill="white"/>
<path d="M93.0381 15.3815C92.6421 15.1324 92.3711 14.8832 92.3711 14.4057C92.3711 13.9489 92.7254 13.596 93.1631 13.596C93.6842 13.596 93.9135 13.9074 94.3512 14.1358C94.8931 14.4472 95.5184 14.6133 96.2896 14.6133C97.707 14.6133 98.4157 13.9697 98.4157 13.1808C98.4157 12.0596 97.3735 11.852 95.9561 11.4783C94.2053 11.0215 92.517 10.5025 92.517 8.48856C92.517 6.70304 93.8927 5.35352 96.3313 5.35352C97.2901 5.35352 98.1864 5.60266 98.895 6.03866C99.1452 6.18399 99.3953 6.49542 99.3953 6.84837C99.3953 7.30514 99.0201 7.69961 98.5407 7.69961C98.2281 7.69961 97.9779 7.49199 97.6653 7.28437C97.3526 7.07675 96.8941 6.8899 96.2688 6.8899C94.8723 6.8899 94.2678 7.49199 94.2678 8.30171C94.2678 9.36057 95.2892 9.60971 96.7482 9.96266C98.4573 10.3779 100.146 10.9177 100.146 12.9731C100.146 14.7587 98.8117 16.1497 96.2479 16.1497C94.9974 16.1497 93.8718 15.9006 93.0381 15.3815Z" fill="white"/>
<path d="M101.814 10.7516C101.814 7.61656 103.982 5.35352 106.963 5.35352C109.693 5.35352 111.861 7.34666 111.861 10.0665C111.861 10.7101 111.444 11.1461 110.84 11.1461H104.066C103.774 11.1461 103.67 11.2499 103.67 11.4783C103.67 11.9973 104.086 12.9524 104.712 13.5752C105.337 14.1981 106.192 14.5718 107.4 14.5718C108.297 14.5718 109.089 14.2396 109.693 13.8036C109.881 13.6583 110.089 13.5752 110.298 13.5752C110.735 13.5752 111.09 13.9697 111.09 14.3849C111.09 14.6341 111.006 14.8417 110.798 15.0286C109.922 15.7552 108.693 16.1497 107.359 16.1497C104.13 16.1497 101.814 13.8244 101.814 10.7516ZM109.195 7.7619C108.611 7.18056 107.861 6.8899 106.965 6.8899C106.069 6.8899 105.235 7.24285 104.63 7.84495C104.151 8.32247 103.817 8.94533 103.817 9.36057C103.817 9.56818 103.943 9.65123 104.214 9.65123H109.633C109.883 9.65123 110.008 9.56818 110.008 9.36057C110.008 8.86228 109.612 8.17714 109.195 7.7619Z" fill="white"/>
</svg>
