<svg width="87" height="16" viewBox="0 0 87 16" fill="none" xmlns="http://www.w3.org/2000/svg">
<path fill-rule="evenodd" clip-rule="evenodd" d="M81.7025 3.08511C83.2518 3.08511 84.8748 3.43088 86.006 3.87544V0.837612C84.8502 0.467146 83.2518 0.0966797 81.1615 0.0966797C77.2023 0.0966797 74.5218 1.57854 74.5218 4.66576C74.5218 10.0005 82.1698 8.91378 82.1698 11.3836C82.1698 12.3468 81.2599 12.8901 79.4647 12.8901C77.8417 12.8901 75.9481 12.8407 74.4727 12.1492V15.1623C75.9481 15.681 78.0876 15.9032 79.7106 15.9032C83.8174 15.9032 86.793 14.6684 86.793 10.8649C86.793 5.77716 79.0958 7.25903 79.0958 4.2459C79.0713 3.1098 80.3008 3.08511 81.7025 3.08511ZM65.546 11.7787H64.1688V15.9032H59.3735V0.0966797C59.4719 0.0966797 63.1852 0.170773 64.8574 0.0966797C69.8003 0.170773 73.0955 1.75143 73.0955 5.60428C73.0955 10.0993 69.8741 11.7787 65.546 11.7787ZM64.882 2.83813C64.6361 2.83813 64.4639 2.83813 64.1934 2.83813V9.01257H64.882C67.292 9.01257 68.3002 8.27163 68.3002 5.57958C68.3002 3.92483 67.169 2.86283 64.882 2.83813ZM51.8731 0.0966797H56.6684V15.9032H51.8731V0.0966797ZM40.2414 15.9032V0.0966797H45.0367V12.4703H49.832L49.1435 15.9032H40.2414ZM32.7164 0.0966797H37.5117V15.9032H32.7164V0.0966797ZM25.1914 9.7288H20.3961V15.9032H15.6007V0.0966797H20.3961V6.27112H25.1914V0.0966797H29.9867V15.9032H25.1914V9.7288ZM6.69864 11.7787H5.32152V15.9032H0.550781V0.0966797C0.649147 0.0966797 4.36245 0.170773 6.03467 0.0966797C10.9776 0.170773 14.2482 1.75143 14.2482 5.60428C14.2482 10.0993 11.0267 11.7787 6.69864 11.7787ZM6.03467 2.83813C5.78876 2.83813 5.61662 2.83813 5.34611 2.83813V9.01257H6.03467C8.44463 9.01257 9.45288 8.27163 9.45288 5.57958C9.45288 3.92483 8.32168 2.86283 6.03467 2.83813Z" fill="white"/>
</svg>
