<svg width="73" height="22" viewBox="0 0 73 22" fill="none" xmlns="http://www.w3.org/2000/svg">
<g clip-path="url(#clip0_1830_5769)">
<path d="M20.7236 0.781006C17.4591 0.781006 14.8025 3.4366 14.8025 6.70203V17.2455H12.634V6.70592C12.634 3.4405 9.97844 0.783928 6.71399 0.783928C3.44954 0.783928 0.792969 3.4405 0.792969 6.70495V20.9853H4.5299V6.70495C4.5299 5.50087 5.50894 4.52183 6.71302 4.52183C7.91709 4.52183 8.89614 5.50087 8.89614 6.70495V20.9853L18.5395 20.9805V6.70203C18.5395 5.49795 19.5185 4.51891 20.7226 4.51891C21.9267 4.51891 22.9057 5.49795 22.9057 6.70203V20.9824H26.6426V6.70203C26.6426 3.43757 23.987 0.781006 20.7216 0.781006H20.7236Z" fill="white"/>
<path d="M37.37 14.7537C37.37 16.2578 36.1465 17.4823 34.6414 17.4823C33.1363 17.4823 31.9127 16.2588 31.9127 14.7537V6.70215H28.1758V14.7547C28.1758 18.3201 31.0759 21.2202 34.6414 21.2202C38.2068 21.2202 41.1069 18.3201 41.1069 14.7547V6.70215H37.37V14.7547V14.7537Z" fill="white"/>
<path d="M72.0475 1.01196H68.3105V20.9815H72.0475V1.01196Z" fill="white"/>
<path d="M42.6406 20.9825H46.3776V10.4644H51.8505V6.70215H42.6406V20.9825Z" fill="white"/>
<path d="M63.0401 7.91986C61.8808 7.02947 60.4527 6.50146 58.9096 6.50146C55.044 6.50146 51.9004 9.80196 51.9004 13.8584C51.9004 17.9149 55.045 21.2154 58.9096 21.2154C60.4536 21.2154 61.8808 20.6874 63.0401 19.797V20.9816H66.777V6.70214H63.0401V7.92083V7.91986ZM63.0401 14.0377C62.9524 16.1526 61.3275 17.8447 59.3401 17.8447C57.3528 17.8447 55.6363 16.0561 55.6363 13.8584C55.6363 11.6607 57.2983 9.8721 59.3401 9.8721C61.382 9.8721 62.9524 11.5642 63.0401 13.6792V14.0367V14.0377Z" fill="white"/>
</g>
<defs>
<clipPath id="clip0_1830_5769">
<rect width="71.2559" height="20.4381" fill="white" transform="translate(0.792969 0.781006)"/>
</clipPath>
</defs>
</svg>
