<svg width="78" height="60" viewBox="0 0 78 60" fill="none" xmlns="http://www.w3.org/2000/svg">
<path d="M51.1946 39.9871C48.8326 40.4115 47.5443 42.1091 47.5443 45.186C47.5443 48.2629 49.1547 50.385 51.7314 50.385C52.9124 50.385 53.986 49.9605 56.2406 48.8995V51.446C53.5566 52.6131 51.9461 53.0375 49.7989 53.0375C47.4369 53.0375 45.8265 52.4009 44.4307 51.0216C43.035 49.6422 42.3909 47.8385 42.3909 45.8226C42.3909 41.3664 45.7191 38.3956 50.6578 38.3956C53.8787 38.3956 56.1333 39.881 56.1333 42.003C56.1333 43.3823 55.0596 44.3372 53.5566 44.3372C52.805 44.3372 52.1609 44.125 51.302 43.7006V39.9871H51.1946ZM39.2773 45.9287C41.4246 43.2762 42.1761 42.1091 42.1761 40.8359C42.1761 39.5627 41.1025 38.5017 39.7068 38.5017C38.8479 38.5017 38.0964 38.9261 37.6669 39.3505V44.8677L34.1239 49.5361V38.9261H30.7957L25.1055 47.9446V38.82H23.173L18.1269 40.0932V41.3664L20.9184 41.6847V52.9314H24.4613L29.8294 44.2311V52.9314H33.8019L39.2773 45.9287ZM7.39067 41.6847C8.24957 41.5786 8.57166 41.5786 9.00111 41.5786C11.3631 41.5786 12.6514 43.064 12.6514 46.0348C12.6514 49.43 11.1484 51.2338 8.24957 51.2338C8.03485 51.2338 7.82012 51.2338 7.49804 51.2338V41.6847H7.39067ZM7.39067 52.7192C8.35694 52.8253 9.21584 52.8253 9.75265 52.8253C14.584 52.8253 17.5901 49.7483 17.5901 45.2921C17.5901 41.3664 15.3355 38.6078 12.222 38.6078C10.9336 38.6078 9.96737 38.9261 7.39067 40.4115V38.5017H5.99496L0.412109 40.1993V41.5786H2.77409V57.2815L0.626834 57.812V59.0852H9.75265V57.812L7.39067 57.2815V52.7192ZM34.1239 30.438H48.0811V27.0428H34.1239V30.438ZM77.7131 19.2974V27.0428H48.0811V0.517578H63.2192V3.5945H66.3327V8.15684H73.7407V19.2974H77.7131ZM66.3327 9.32394V19.4035H72.6671V9.32394H66.3327ZM49.1547 19.2974H56.4554V16.5388H49.1547V19.2974ZM49.1547 8.15684H62.0382V4.65551H49.1547V8.15684ZM49.1547 9.32394V15.4778H57.529V19.2974H62.0382V9.32394H49.1547ZM49.1547 25.8757H56.4554V20.3584H49.1547V25.8757ZM57.529 25.8757H62.0382V20.3584H57.529V25.8757ZM63.2192 25.8757H65.2591V20.3584H63.2192V25.8757ZM65.2591 19.2974V9.32394H63.2192V19.4035H65.2591V19.2974ZM63.2192 4.65551V8.15684H65.2591V4.65551H63.2192ZM49.1547 3.5945H62.0382V1.57859H49.1547V3.5945ZM72.6671 25.8757V20.3584H66.3327V25.8757H72.6671ZM76.6395 20.3584H73.8481V25.8757H76.6395V20.3584Z" fill="white"/>
</svg>
