<svg width="105" height="14" viewBox="0 0 105 14" fill="none" xmlns="http://www.w3.org/2000/svg">
<g clip-path="url(#clip0_7745_4286)">
<mask id="mask0_7745_4286" style="mask-type:luminance" maskUnits="userSpaceOnUse" x="0" y="0" width="105" height="14">
<path d="M105 0H0V14H105V0Z" fill="white"/>
</mask>
<g mask="url(#mask0_7745_4286)">
<path fill-rule="evenodd" clip-rule="evenodd" d="M68.6983 13.1183C69.862 13.7061 71.2116 14 72.7472 14C74.2828 14 75.6323 13.7061 76.796 13.1183C77.9597 12.5304 78.8654 11.7147 79.5132 10.671C80.1611 9.61525 80.485 8.3916 80.485 7C80.485 5.6084 80.1611 4.39075 79.5132 3.34704C78.8654 2.29135 77.9597 1.46958 76.796 0.881748C75.6323 0.293917 74.2828 0 72.7472 0C71.2116 0 69.862 0.293917 68.6983 0.881748C67.5347 1.46958 66.6289 2.29135 65.9811 3.34704C65.3333 4.39075 65.0094 5.6084 65.0094 7C65.0094 8.3916 65.3333 9.61525 65.9811 10.671C66.6289 11.7147 67.5347 12.5304 68.6983 13.1183ZM75.5724 11.2828C74.7806 11.6787 73.8389 11.8766 72.7472 11.8766C71.6675 11.8766 70.7258 11.6787 69.922 11.2828C69.1302 10.8869 68.5124 10.3231 68.0685 9.59126C67.6366 8.85947 67.4207 7.99572 67.4207 7C67.4207 6.00429 67.6366 5.14053 68.0685 4.40874C68.5124 3.67695 69.1302 3.11311 69.922 2.71722C70.7258 2.32134 71.6675 2.12339 72.7472 2.12339C73.8389 2.12339 74.7806 2.32134 75.5724 2.71722C76.3642 3.11311 76.976 3.67695 77.4079 4.40874C77.8517 5.14053 78.0736 6.00429 78.0736 7C78.0736 7.99572 77.8517 8.85947 77.4079 9.59126C76.976 10.3231 76.3642 10.8869 75.5724 11.2828ZM18.0598 0.251928H15.6845V13.7481H18.0598V7.98972H26.6614V13.7481H29.0367V0.251928H26.6614V5.90231H18.0598V0.251928ZM35.11 10.653L33.6642 13.7481H31.1269L37.605 0.251928H40.5742L47.0524 13.7481H44.5151L43.0692 10.653H35.11ZM42.1529 8.69152L39.0896 2.13397L36.0263 8.69152H42.1529ZM55.2475 0.251928C56.783 0.251928 58.1266 0.533849 59.2783 1.09769C60.442 1.66153 61.3477 2.4533 61.9955 3.47301C62.6434 4.48072 62.9673 5.65639 62.9673 7C62.9673 8.34362 62.6434 9.52528 61.9955 10.545C61.3477 11.5527 60.442 12.3385 59.2783 12.9023C58.1266 13.4662 56.783 13.7481 55.2475 13.7481H49.1472V0.251928H55.2475ZM55.4094 11.6607H51.5225V2.33933H55.4094C56.4411 2.33933 57.3409 2.53727 58.1086 2.93316C58.8884 3.31705 59.4882 3.8569 59.9081 4.5527C60.34 5.2485 60.5559 6.06427 60.5559 7C60.5559 7.92374 60.34 8.7395 59.9081 9.4473C59.4882 10.1431 58.8884 10.6889 58.1086 11.0848C57.3409 11.4687 56.4411 11.6607 55.4094 11.6607ZM102.238 0.251928L98.5264 11.547L94.4279 0.251928H91.8546L87.7525 11.5854L84.0448 0.251928H81.5436L86.1143 13.7481H89.1374L93.1322 2.90039L97.1271 13.7481H100.15L104.721 0.251928H102.238ZM10.2364 13.7481H12.7553C12.7045 13.2118 12.5616 12.7603 12.3265 12.3935C12.0266 11.9137 11.5227 11.5358 10.8149 11.2598C10.1191 10.9719 9.16538 10.744 7.95373 10.576L5.00258 10.1622C4.03085 10.0302 3.34703 9.83825 2.95115 9.58632C2.56727 9.3224 2.37532 8.9505 2.37532 8.47064C2.37532 7.84682 2.70523 7.35496 3.36504 6.99506C4.02484 6.63517 4.90659 6.45522 6.01027 6.45522C6.79006 6.45522 7.46787 6.55719 8.0437 6.76113C8.61953 6.95308 9.0754 7.223 9.41131 7.5709C9.75922 7.9188 9.96315 8.33268 10.0231 8.81254H12.4344C12.3865 7.94879 12.0806 7.19901 11.5167 6.56319C10.9649 5.91537 10.2211 5.41151 9.28534 5.05162C8.34962 4.69172 7.27593 4.51177 6.06428 4.51177C4.84061 4.51177 3.77293 4.67973 2.86119 5.01563C1.94945 5.33954 1.24164 5.8074 0.737798 6.41923C0.245926 7.01906 0 7.73285 0 8.56062C0 9.6523 0.365886 10.4981 1.09768 11.0979C1.84148 11.6857 3.02914 12.0876 4.66066 12.3035L7.57584 12.6814C8.64354 12.8134 9.38132 13.0113 9.78921 13.2753C9.98553 13.4023 10.1346 13.5599 10.2364 13.7481Z" fill="white"/>
<path d="M10.1914 0.211914H12.7394V2.75986H10.1914V0.211914Z" fill="white"/>
</g>
</g>
<defs>
<clipPath id="clip0_7745_4286">
<rect width="105" height="14" fill="white"/>
</clipPath>
</defs>
</svg>
