<svg width="119" height="25" viewBox="0 0 119 25" fill="none" xmlns="http://www.w3.org/2000/svg">
<g clip-path="url(#clip0_7745_4234)">
<mask id="mask0_7745_4234" style="mask-type:luminance" maskUnits="userSpaceOnUse" x="0" y="0" width="119" height="25">
<path d="M118.25 0.738281H0.75V24.3233H118.25V0.738281Z" fill="white"/>
</mask>
<g mask="url(#mask0_7745_4234)">
<mask id="mask1_7745_4234" style="mask-type:luminance" maskUnits="userSpaceOnUse" x="0" y="0" width="119" height="25">
<path d="M118.25 0.738281H0.75V24.3233H118.25V0.738281Z" fill="white"/>
</mask>
<g mask="url(#mask1_7745_4234)">
<path d="M15.9421 24.3233C21.8408 24.3233 26.7279 19.9923 27.5972 14.3368H24.1401C23.314 18.104 19.9573 20.9236 15.9421 20.9236C11.9269 20.9236 8.57019 18.104 7.74403 14.3368H4.28707C4.19657 13.748 4.14964 13.1449 4.14964 12.5308C4.14964 11.9167 4.19657 11.3135 4.28707 10.7247H7.74403C8.57019 6.95752 11.9269 4.13792 15.9421 4.13792C19.9573 4.13792 23.314 6.95752 24.1401 10.7247H27.5972C26.7279 5.06923 21.8408 0.738281 15.9421 0.738281C10.0434 0.738281 5.15627 5.06923 4.28707 10.7247H0.843369C0.781673 11.2828 0.75 11.85 0.75 12.4245C0.75 13.0721 0.790241 13.7104 0.868359 14.3368H4.28707C5.15627 19.9923 10.0434 24.3233 15.9421 24.3233Z" fill="white"/>
<path d="M44.9684 4.99805C49.6539 4.99805 52.7778 8.32121 52.7778 12.8629C52.7778 17.4046 49.6539 20.7277 44.9684 20.7277C40.2269 20.7277 37.1592 17.4046 37.1592 12.8629C37.1592 8.32121 40.2269 4.99805 44.9684 4.99805ZM44.9684 18.2353C47.8132 18.2353 49.7098 15.9645 49.7098 12.9183C49.7098 9.81665 47.8132 7.60119 44.9684 7.60119C42.1235 7.60119 40.2269 9.81665 40.2269 12.9183C40.2269 15.9645 42.1235 18.2353 44.9684 18.2353Z" fill="white"/>
<path d="M54.9521 9.70605H57.8527V15.9093C57.8527 17.9032 58.6895 18.5678 59.9725 18.5678C61.3669 18.5678 62.4268 17.4047 62.4268 15.4108V9.70605H65.2715V20.5063H62.5382V18.9555H62.4268C61.8131 20.174 60.6418 20.7833 59.1357 20.7833C56.9045 20.7833 54.9521 19.6202 54.9521 16.2416V9.70605Z" fill="white"/>
<path d="M68.6195 11.8105H66.5557V9.70576H68.6195V6.43799H71.4643V9.70576H74.142V11.8105H71.4643V16.5736C71.4643 17.7368 71.8549 18.1798 72.9704 18.1798H74.142V20.5061H72.4126C69.5677 20.5061 68.6195 19.5091 68.6195 16.7952V11.8105Z" fill="white"/>
<path d="M76.0381 4.27832H78.9386V20.5065H76.0381V4.27832Z" fill="white"/>
<path d="M81.4492 4.27832H84.5172V6.93684H81.4492V4.27832ZM81.5608 9.70616H84.4613V20.5065H81.5608V9.70616Z" fill="white"/>
<path d="M90.1513 14.4141L92.271 14.0818C93.4424 13.9157 93.6655 13.7495 93.6655 13.1957C93.6655 12.1433 93.0518 11.3679 91.713 11.3679C90.3744 11.3679 89.6492 12.0326 89.5934 13.1403H86.9159C87.0834 10.7033 89.0356 9.37402 91.713 9.37402C94.9482 9.37402 96.5099 10.7587 96.5099 13.3064V20.4512H93.777V19.2327H93.6655C92.996 20.2297 91.8246 20.7836 90.207 20.7836C87.7527 20.7836 86.5254 19.5651 86.5254 17.7373C86.5254 15.9096 87.5296 14.8019 90.1513 14.4141ZM93.6096 16.1311V15.1896C93.3865 15.4665 93.0518 15.6326 92.5498 15.688L90.8763 15.9649C89.7051 16.1865 89.2587 16.685 89.2587 17.405C89.2587 18.2358 89.8165 18.7343 90.9322 18.7343C92.3267 18.7896 93.6096 17.9589 93.6096 16.1311Z" fill="white"/>
<path d="M99.0752 9.70614H101.809V11.257H101.92C102.533 10.0384 103.761 9.4292 105.267 9.4292C107.498 9.4292 109.45 10.5923 109.45 13.9708V20.5064H106.55V14.3032C106.55 12.3093 105.713 11.6446 104.43 11.6446C102.98 11.6446 101.92 12.8078 101.92 14.8017V20.5064H99.0752V9.70614Z" fill="white"/>
<path d="M112.629 11.8105H110.565V9.70576H112.629V6.43799H115.474V9.70576H118.152V11.8105H115.474V16.5736C115.474 17.7368 115.864 18.1798 116.98 18.1798H118.152V20.5061H116.423C113.578 20.5061 112.629 19.5091 112.629 16.7952V11.8105Z" fill="white"/>
</g>
</g>
</g>
<defs>
<clipPath id="clip0_7745_4234">
<rect width="119" height="25" fill="white"/>
</clipPath>
</defs>
</svg>
