<svg width="100" height="19" viewBox="0 0 100 19" fill="none" xmlns="http://www.w3.org/2000/svg">
<g clip-path="url(#clip0_7745_4271)">
<mask id="mask0_7745_4271" style="mask-type:luminance" maskUnits="userSpaceOnUse" x="0" y="0" width="100" height="19">
<path d="M100 0.412598H0V18.649H100V0.412598Z" fill="white"/>
</mask>
<g mask="url(#mask0_7745_4271)">
<path fill-rule="evenodd" clip-rule="evenodd" d="M0.441966 5.92683C1.03125 5.33754 1.99937 5.33754 2.58866 5.92683L12.7223 16.0605C13.3116 16.6498 13.3116 17.6179 12.7223 18.2072C12.133 18.7964 11.1649 18.7964 10.5756 18.2072L0.441966 8.07352C-0.147322 7.48423 -0.147322 6.51612 0.441966 5.92683Z" fill="white"/>
<path fill-rule="evenodd" clip-rule="evenodd" d="M0 1.92791C0 1.09659 0.683994 0.412598 1.51531 0.412598H11.649C12.4908 0.412598 13.1643 1.09659 13.1643 1.92791C13.1643 2.76975 12.4803 3.44322 11.649 3.44322H1.51531C0.683994 3.45374 0 2.76975 0 1.92791Z" fill="white"/>
<path fill-rule="evenodd" clip-rule="evenodd" d="M3.04136 8.51549V17.1338C3.04136 17.9757 2.35737 18.6491 1.52605 18.6491C0.684213 18.6491 0.0107422 17.9651 0.0107422 17.1338V7.00017C0.0107422 6.6003 0.168587 6.21095 0.452708 5.92683C0.736828 5.64271 1.12618 5.48486 1.52605 5.48486H11.6597C12.5015 5.48486 13.175 6.16886 13.175 7.00017C13.175 7.84201 12.491 8.51549 11.6597 8.51549H3.04136Z" fill="white"/>
<path d="M27.9485 17.1336L24.8231 11.6196H23.4867V17.1336H20.6455V2.99072H25.9596C27.054 2.99072 27.9906 3.19066 28.7587 3.58001C29.5269 3.95884 30.1057 4.47447 30.4845 5.13741C30.8739 5.78984 31.0738 6.51593 31.0738 7.3262C31.0738 8.26274 30.8002 9.10458 30.2635 9.86224C29.7269 10.6094 28.9166 11.1145 27.8538 11.3986L31.2422 17.1336H27.9485ZM23.4867 9.49393H25.8544C26.6226 9.49393 27.2013 9.31504 27.5802 8.94674C27.959 8.56791 28.1484 8.05228 28.1484 7.38933C28.1484 6.73691 27.959 6.24233 27.5802 5.88455C27.2013 5.51624 26.6226 5.33735 25.8544 5.33735H23.4867V9.49393Z" fill="white"/>
<path d="M44.0809 11.2727C44.0809 11.6831 44.0493 12.0409 43.9967 12.3671H35.7888C35.8519 13.1774 36.1361 13.8088 36.6412 14.2718C37.1463 14.7348 37.7566 14.9558 38.4827 14.9558C39.535 14.9558 40.2821 14.5033 40.7346 13.5983H43.7968C43.4706 14.6822 42.8497 15.5661 41.9342 16.2711C41.0187 16.9551 39.8822 17.3024 38.5458 17.3024C37.4619 17.3024 36.4938 17.0709 35.6309 16.5973C34.7786 16.1133 34.1156 15.4293 33.6211 14.5454C33.1475 13.672 32.916 12.6512 32.916 11.5042C32.916 10.3467 33.1475 9.32596 33.6211 8.44203C34.0946 7.56862 34.7575 6.88463 35.6099 6.41109C36.4623 5.93756 37.4409 5.70605 38.5458 5.70605C39.6086 5.70605 40.5662 5.93756 41.4081 6.39005C42.2604 6.85306 42.9129 7.50549 43.3759 8.35785C43.8389 9.22073 44.0809 10.1783 44.0809 11.2727ZM41.1345 10.4624C41.124 9.73637 40.8609 9.14707 40.3452 8.71563C39.8296 8.27366 39.1982 8.04216 38.4616 8.04216C37.7566 8.04216 37.1673 8.26314 36.6832 8.69458C36.2097 9.1155 35.9151 9.7048 35.8098 10.4624H41.1345Z" fill="white"/>
<path d="M51.3002 8.23125H49.3324V17.1337H46.4491V8.23125H45.1758V5.90567H46.4491V5.33743C46.4491 3.95891 46.8384 2.94871 47.6276 2.29628C48.4063 1.64385 49.5954 1.33869 51.1739 1.38078V3.78002C50.4899 3.7695 50.0058 3.88525 49.7322 4.12728C49.4586 4.36931 49.3218 4.81128 49.3218 5.44266V5.90567H51.2896V8.23125H51.3002Z" fill="white"/>
<path d="M58.1187 17.3126C57.0349 17.3126 56.0667 17.0811 55.2038 16.6076C54.341 16.1235 53.657 15.4396 53.1519 14.5556C52.6678 13.6822 52.4258 12.6615 52.4258 11.5145C52.4258 10.3675 52.6783 9.35726 53.1729 8.47333C53.6885 7.59992 54.3831 6.91593 55.2565 6.44239C56.1299 5.95834 57.119 5.71631 58.1924 5.71631C59.2762 5.71631 60.2549 5.95834 61.1283 6.44239C62.0017 6.91593 62.6962 7.5894 63.1908 8.47333C63.7064 9.34674 63.959 10.3675 63.959 11.5145C63.959 12.6615 63.6959 13.6717 63.1698 14.5556C62.6541 15.429 61.9491 16.113 61.0652 16.6076C60.2023 17.0811 59.2131 17.3126 58.1187 17.3126ZM58.1187 14.8397C58.6343 14.8397 59.1079 14.7135 59.5604 14.4714C60.0234 14.2189 60.3812 13.8401 60.6548 13.335C60.9284 12.8299 61.0652 12.23 61.0652 11.5145C61.0652 10.4517 60.781 9.63086 60.2128 9.06262C59.6551 8.48386 58.9816 8.18921 58.1608 8.18921C57.3505 8.18921 56.6665 8.48386 56.1088 9.06262C55.5722 9.63086 55.2986 10.4517 55.2986 11.5145C55.2986 12.5773 55.5616 13.4086 56.0878 13.9874C56.635 14.5556 57.3084 14.8397 58.1187 14.8397Z" fill="white"/>
<path d="M72.7033 17.1335L68.8939 12.3455V17.1335H66.0527V2.13818H68.8939V10.6723L72.6612 5.90542H76.3547L71.4089 11.5352L76.3968 17.1335H72.7033Z" fill="white"/>
<path d="M88.4985 5.90576V17.1338H85.6363V15.7132C85.268 16.1973 84.7944 16.5866 84.1946 16.8707C83.6159 17.1443 82.974 17.2811 82.29 17.2811C81.4166 17.2811 80.6379 17.1022 79.9539 16.7339C79.2804 16.3551 78.7437 15.8079 78.3544 15.0923C77.9755 14.3663 77.7861 13.4928 77.7861 12.4932V5.90576H80.6273V12.0828C80.6273 12.9772 80.8483 13.6612 81.3008 14.1453C81.7428 14.6188 82.3531 14.8503 83.1213 14.8503C83.9 14.8503 84.5208 14.6188 84.9628 14.1453C85.4048 13.6612 85.6363 12.9667 85.6363 12.0828V5.90576H88.4985Z" fill="white"/>
<path d="M95.5912 17.3126C94.6757 17.3126 93.8444 17.1548 93.1183 16.8286C92.3922 16.4919 91.8029 16.0394 91.3715 15.4711C90.9506 14.9029 90.7191 14.2715 90.6875 13.5875H93.5498C93.6024 14.0189 93.8128 14.3767 94.1811 14.6609C94.56 14.945 95.023 15.0818 95.5807 15.0818C96.1174 15.0818 96.5383 14.9765 96.8329 14.7556C97.1486 14.5346 97.2959 14.261 97.2959 13.9242C97.2959 13.5559 97.1065 13.2929 96.7277 13.114C96.3594 12.9246 95.7701 12.7246 94.9598 12.5036C94.118 12.3037 93.434 12.0932 92.8973 11.8723C92.3712 11.6513 91.9082 11.3251 91.5188 10.8831C91.14 10.4411 90.9506 9.8308 90.9506 9.08367C90.9506 8.46281 91.1295 7.89457 91.4767 7.37894C91.845 6.86331 92.3501 6.46344 93.0131 6.15827C93.6866 5.86363 94.4758 5.71631 95.3808 5.71631C96.7172 5.71631 97.7905 6.05304 98.5797 6.72652C99.3795 7.38946 99.8109 8.28392 99.8951 9.4204H97.1802C97.1381 8.97844 96.9487 8.62065 96.6119 8.3681C96.2857 8.0945 95.8438 7.95771 95.2966 7.95771C94.7809 7.95771 94.3811 8.05241 94.097 8.24183C93.8234 8.43124 93.6866 8.69432 93.6866 9.03105C93.6866 9.40988 93.876 9.70452 94.2548 9.90446C94.6336 10.0939 95.2229 10.2938 96.0227 10.4937C96.8329 10.6937 97.5064 10.9041 98.0325 11.1251C98.5587 11.3461 99.0112 11.6828 99.39 12.1353C99.7794 12.5773 99.9793 13.1771 100 13.9137C100 14.5661 99.8215 15.1449 99.4532 15.6605C99.1059 16.1762 98.5903 16.576 97.9168 16.8812C97.2644 17.1758 96.4857 17.3126 95.5912 17.3126Z" fill="white"/>
</g>
</g>
<defs>
<clipPath id="clip0_7745_4271">
<rect width="100" height="19" fill="white"/>
</clipPath>
</defs>
</svg>
