<svg width="170" height="27" viewBox="0 0 170 27" fill="none" xmlns="http://www.w3.org/2000/svg">
<g clip-path="url(#clip0_7745_4293)">
<mask id="mask0_7745_4293" style="mask-type:luminance" maskUnits="userSpaceOnUse" x="0" y="0" width="170" height="27">
<path d="M170 0H0V27H170V0Z" fill="white"/>
</mask>
<g mask="url(#mask0_7745_4293)">
<path fill-rule="evenodd" clip-rule="evenodd" d="M36.8569 9.61372C36.4317 9.15162 35.908 8.79177 35.3247 8.56027C34.635 8.28054 33.8958 8.14377 33.1522 8.15749C31.9512 8.15749 31.0813 8.38898 30.5426 8.85241C29.9955 9.303 29.6917 9.98464 29.7213 10.6937C29.7081 11.0421 29.7836 11.3878 29.9421 11.6985C30.1068 11.9787 30.339 12.2128 30.6177 12.3801C30.9864 12.5917 31.3811 12.7537 31.7922 12.8626C32.2691 13.0042 32.8299 13.1414 33.479 13.3052C34.14 13.4398 34.793 13.611 35.4351 13.8186C35.9588 13.9873 36.4568 14.2285 36.9143 14.5357C37.3029 14.8052 37.6221 15.1633 37.846 15.5803C38.0782 16.0543 38.1904 16.5793 38.1727 17.1073C38.1847 17.6717 38.0606 18.2303 37.8107 18.7362C37.5674 19.1921 37.2212 19.5851 36.7995 19.8826C36.331 20.203 35.8069 20.4332 35.254 20.5598C34.6102 20.7116 33.9501 20.786 33.2891 20.7811C31.2968 20.8183 29.361 20.1167 27.8535 18.8114L28.5203 17.7049C28.7883 17.9775 29.0841 18.2205 29.4034 18.4303C29.7527 18.6667 30.1236 18.8681 30.5117 19.0327C30.9387 19.2093 31.3829 19.3426 31.8364 19.4311C32.3261 19.5307 32.8246 19.5794 33.3244 19.5772C34.2062 19.6254 35.0836 19.4214 35.8546 18.9885C36.4471 18.6021 36.7845 17.9248 36.7377 17.218C36.75 16.8484 36.6617 16.4828 36.4816 16.1601C36.2868 15.8525 36.0219 15.5962 35.7088 15.4121C35.3101 15.1793 34.8845 14.9965 34.4416 14.8677C33.9338 14.7172 33.3421 14.5622 32.6753 14.425C32.0086 14.2878 31.3507 14.0842 30.8031 13.9072C30.3214 13.7549 29.8657 13.5296 29.452 13.2388C29.1 12.9905 28.8148 12.659 28.6218 12.2739C28.424 11.8379 28.3291 11.3625 28.3436 10.884C28.3348 10.3082 28.4554 9.73765 28.6969 9.21536C28.9247 8.72227 29.2705 8.29382 29.7036 7.96716C30.1633 7.63077 30.679 7.37891 31.227 7.22355C31.8602 7.04385 32.5159 6.95577 33.1743 6.96241C33.996 6.94824 34.8138 7.08767 35.5852 7.37405C36.2868 7.64449 36.9359 8.03709 37.5016 8.53372L36.8569 9.61372Z" fill="white"/>
<path fill-rule="evenodd" clip-rule="evenodd" d="M41.4313 13.8539C41.4304 14.5806 41.5527 15.3017 41.7934 15.9873C42.0265 16.6504 42.378 17.2656 42.8311 17.8021C43.266 18.3266 43.8043 18.7564 44.4118 19.064C45.7136 19.6956 47.2347 19.6841 48.5272 19.0325C49.1374 18.7121 49.6752 18.269 50.1079 17.7312C50.5455 17.1899 50.8846 16.5755 51.1103 15.9165C51.343 15.2521 51.4626 14.5536 51.4635 13.8494C51.4653 13.1235 51.3394 12.4029 51.0926 11.7204C50.8568 11.0614 50.5053 10.4501 50.055 9.91451C49.6147 9.39576 49.0756 8.96996 48.4698 8.66189C47.8432 8.34453 47.1495 8.18342 46.4474 8.19271C45.725 8.18342 45.011 8.35073 44.3677 8.6796C43.7566 8.99519 43.2183 9.4356 42.7869 9.97206C42.3493 10.5138 42.0102 11.1277 41.7846 11.7868C41.5514 12.4512 41.4322 13.1501 41.4313 13.8539ZM46.4474 20.7366C45.5528 20.7477 44.6684 20.5494 43.8643 20.1568C43.0964 19.7731 42.412 19.2406 41.8508 18.5899C41.2896 17.9371 40.8511 17.1868 40.557 16.3768C40.2581 15.5619 40.1084 14.6997 40.1155 13.8317C40.1217 12.0683 40.7738 10.3686 41.9479 9.05583C42.5083 8.41933 43.1883 7.89925 43.9482 7.52435C44.7346 7.14591 45.597 6.95204 46.4695 6.95779C47.3659 6.94894 48.2516 7.1552 49.0526 7.55976C49.817 7.94883 50.4965 8.48617 51.0529 9.13992C52.1766 10.4576 52.8019 12.1294 52.8191 13.8632C52.8218 14.7519 52.6553 15.6336 52.329 16.4614C52.0247 17.2731 51.5761 18.0229 51.0043 18.6745C50.4378 19.3039 49.7538 19.8173 48.9908 20.1834C48.1969 20.5627 47.3266 20.7521 46.4474 20.7366Z" fill="white"/>
<path fill-rule="evenodd" clip-rule="evenodd" d="M54.899 13.7611C54.9052 12.929 55.0549 12.104 55.3406 11.3223C55.6183 10.5273 56.0422 9.79213 56.5902 9.15343C57.1523 8.50277 57.8403 7.97251 58.6126 7.59539C59.4608 7.18243 60.3942 6.97616 61.337 6.99343C62.425 6.96288 63.4984 7.24882 64.4279 7.8167C65.2554 8.32882 65.915 9.07154 66.3266 9.95457L65.2713 10.6229C65.073 10.1962 64.801 9.80806 64.4676 9.47654C64.1705 9.18264 63.8327 8.93211 63.4653 8.73293C63.1178 8.54526 62.7464 8.40672 62.3614 8.32129C61.9914 8.23941 61.6143 8.19824 61.2354 8.19736C60.4874 8.18143 59.7469 8.35184 59.0806 8.6931C58.4721 9.01267 57.9365 9.45574 57.5087 9.99441C57.079 10.5322 56.7514 11.1443 56.5416 11.8003C56.3279 12.458 56.2193 13.145 56.2193 13.8364C56.2149 14.5747 56.3482 15.3072 56.6123 15.9964C56.8574 16.6639 57.2172 17.2826 57.6764 17.8244C58.1242 18.3449 58.6686 18.7734 59.2793 19.0859C59.9046 19.3975 60.5943 19.5568 61.2928 19.5506C61.6885 19.5502 62.0828 19.5028 62.4674 19.409C62.8736 19.3174 63.2644 19.1687 63.6287 18.9664C64.0155 18.7446 64.3692 18.4689 64.6796 18.1475C65.0116 17.8182 65.2836 17.4336 65.4832 17.01L66.5871 17.5858C66.3725 18.0842 66.0616 18.5353 65.6731 18.9137C65.2779 19.301 64.8328 19.6334 64.3484 19.9003C63.8631 20.1668 63.3469 20.3721 62.8118 20.5111C62.2934 20.6501 61.7591 20.7218 61.2222 20.7236C60.3324 20.7347 59.4533 20.5231 58.6655 20.1083C57.9016 19.7109 57.2208 19.17 56.6609 18.5149C56.093 17.851 55.6448 17.0932 55.3362 16.2752C55.0434 15.4697 54.8955 14.6185 54.899 13.7611Z" fill="white"/>
<path fill-rule="evenodd" clip-rule="evenodd" d="M69.3555 20.644H70.6801V7.08203H69.3555V20.644Z" fill="white"/>
<path fill-rule="evenodd" clip-rule="evenodd" d="M82.0373 15.3591L79.3084 8.64892L76.5443 15.3591H82.0373ZM78.7565 7.08203H79.8825L85.5079 20.6573H84.0949L82.3287 16.4125H76.2573L74.522 20.6573H73.0913L78.7565 7.08203Z" fill="white"/>
<path fill-rule="evenodd" clip-rule="evenodd" d="M87.9272 20.6435V7.08154H89.2519V19.475H97.0719V20.6612L87.9272 20.6435Z" fill="white"/>
<path fill-rule="evenodd" clip-rule="evenodd" d="M107.74 13.8363C107.747 13.283 107.667 12.7315 107.502 12.203C107.358 11.7374 107.123 11.3054 106.809 10.9327C106.502 10.5746 106.117 10.2927 105.683 10.1094C105.204 9.91201 104.69 9.81419 104.173 9.82171H102.247V17.8907H104.173C104.698 17.9009 105.219 17.7965 105.7 17.5858C106.133 17.3915 106.517 17.0989 106.817 16.7311C107.123 16.3517 107.356 15.9175 107.502 15.4519C107.666 14.9296 107.746 14.3838 107.74 13.8363ZM99.1255 20.6438V7.08188H104.177C105.183 7.05975 106.184 7.24211 107.118 7.61745C107.915 7.94632 108.633 8.44117 109.224 9.06925C109.795 9.68848 110.231 10.4215 110.5 11.2204C110.795 12.0658 110.944 12.9546 110.942 13.8496C110.955 14.8048 110.793 15.7546 110.465 16.6514C110.166 17.4543 109.7 18.1842 109.1 18.7937C108.491 19.3961 107.763 19.8648 106.963 20.1707C106.076 20.504 105.134 20.6695 104.186 20.6571L99.1255 20.6438Z" fill="white"/>
<path fill-rule="evenodd" clip-rule="evenodd" d="M116.386 13.5308H119.247C119.632 13.5211 119.987 13.3246 120.201 13.0041C120.476 12.6172 120.615 12.1507 120.598 11.6762C120.625 11.1933 120.467 10.7188 120.157 10.3484C119.912 10.0483 119.55 9.86767 119.163 9.85262H116.399L116.386 13.5308ZM113.26 20.6438V7.0818H119.362C119.974 7.07472 120.579 7.21282 121.128 7.48459C121.657 7.74308 122.134 8.09939 122.532 8.53361C122.925 8.96605 123.238 9.46488 123.455 10.0075C123.676 10.5347 123.79 11.1004 123.791 11.6718C123.791 12.0812 123.739 12.4889 123.636 12.8846C123.536 13.2679 123.388 13.6366 123.195 13.9823C123.007 14.324 122.772 14.6369 122.497 14.9122C122.224 15.1862 121.913 15.4204 121.574 15.6067L124.546 20.657H121.013L118.422 16.2795H116.382V20.657L113.26 20.6438Z" fill="white"/>
<path fill-rule="evenodd" clip-rule="evenodd" d="M126.511 20.644H129.641V7.08203H126.511V20.644Z" fill="white"/>
<path fill-rule="evenodd" clip-rule="evenodd" d="M134.675 7.08203L137.859 16.7179L141.007 7.08203H144.306L139.175 20.644H136.526L131.359 7.08203H134.675Z" fill="white"/>
<path fill-rule="evenodd" clip-rule="evenodd" d="M155.561 17.8904V20.6435H146.041V7.08154H155.389V9.83466H149.172V12.4904H154.51V15.0311H149.172V17.9214L155.561 17.8904Z" fill="white"/>
<path fill-rule="evenodd" clip-rule="evenodd" d="M161.072 13.5308H163.932C164.317 13.5211 164.673 13.3246 164.887 13.0041C165.161 12.6172 165.3 12.1507 165.284 11.6762C165.311 11.1933 165.152 10.7188 164.842 10.3484C164.596 10.0283 164.221 9.83536 163.818 9.82164H161.054L161.072 13.5308ZM157.945 20.6438V7.0818H164.047C164.66 7.07472 165.265 7.21282 165.813 7.48459C166.344 7.7422 166.821 8.09806 167.218 8.53361C167.611 8.96605 167.924 9.46488 168.141 10.0075C168.361 10.5347 168.475 11.1004 168.476 11.6718C168.477 12.0812 168.425 12.4889 168.322 12.8846C168.222 13.2679 168.073 13.6366 167.88 13.9823C167.693 14.324 167.458 14.6369 167.183 14.9122C166.909 15.1862 166.599 15.4204 166.26 15.6067L169.236 20.657H165.703L163.107 16.2795H161.067V20.657L157.945 20.6438Z" fill="white"/>
<path fill-rule="evenodd" clip-rule="evenodd" d="M7.68311 26.4998H9.64804C17.7992 26.4998 18.8192 21.1883 18.8192 13.469V13.0928L7.68311 26.4998Z" fill="white"/>
<path fill-rule="evenodd" clip-rule="evenodd" d="M0.441406 14.5801V25.1366C0.441406 25.8895 1.05032 26.4999 1.80141 26.4999H1.80582H6.94115L10.244 14.5801H0.441406Z" fill="white"/>
<path fill-rule="evenodd" clip-rule="evenodd" d="M1.80582 0.442434C1.05473 0.440334 0.443614 1.0485 0.441406 1.8014V1.80583V13.8983L11.5554 0.557629C10.9227 0.479285 10.2855 0.440777 9.6479 0.442434H1.80582Z" fill="white"/>
<path fill-rule="evenodd" clip-rule="evenodd" d="M18.8148 12.3935C18.7265 6.19682 17.7285 1.69977 12.2841 0.668457L9.0166 12.3935H18.8148Z" fill="white"/>
</g>
</g>
<defs>
<clipPath id="clip0_7745_4293">
<rect width="170" height="27" fill="white"/>
</clipPath>
</defs>
</svg>
