<svg width="170" height="22" viewBox="0 0 170 22" fill="none" xmlns="http://www.w3.org/2000/svg">
<path d="M86.9002 2.7998H84.5002L75.7002 19.1998H78.9002L81.0002 15.1998H86.5002L87.2002 19.1998H90.1002L86.9002 2.7998ZM86.0002 12.5998H82.4002L85.1002 7.39981L86.0002 12.5998Z" fill="white"/>
<path d="M47.6998 5.1999L38.0998 16.5999H46.0998L45.5998 19.2999H33.7998L34.1998 16.8999L43.7998 5.4999H36.2998L36.7998 2.8999H48.0998L47.6998 5.1999Z" fill="white"/>
<path d="M58.4002 2.8999H56.0002L47.2002 19.2999H50.4002L52.5002 15.2999H58.0002L58.7002 19.2999H61.6002L58.4002 2.8999ZM57.5002 12.5999H53.8002L56.5002 7.3999L57.5002 12.5999Z" fill="white"/>
<path d="M76.2 7.39981C76.3 5.99981 75.9 4.7998 75 3.9998C74.1 3.1998 72.8 2.7998 71.2 2.7998H66.3L63.5 19.1998H69.4C71.1 19.1998 72.5 18.7998 73.6 17.8998C74.7 16.9998 75.3 15.7998 75.4 14.1998C75.5 13.2998 75.3 12.4998 74.9 11.7998C74.7 11.2998 74.3 10.9998 74 10.6998C75.3 9.8998 76.1 8.79981 76.2 7.39981ZM70.4 9.39981H68.1L68.8 5.4998H71.4C72.2 5.4998 72.7 5.6998 73 5.9998C73.3 6.2998 73.4 6.6998 73.3 7.2998C73.2 7.9998 72.9 8.49981 72.4 8.89981C71.8 9.19981 71.2 9.39981 70.4 9.39981ZM72.4 14.1998C72.3 14.9998 72 15.4998 71.5 15.9998C70.9 16.3998 70.3 16.6998 69.4 16.6998H66.9L67.7 12.0998H70.7C71.4 12.0998 71.9 12.2998 72.2 12.6998C72.4 12.9998 72.5 13.4998 72.4 14.1998Z" fill="white"/>
<path d="M102.4 16.5998L102 19.1998H92L94.8 2.7998H97.8L95.4 16.5998H102.4Z" fill="white"/>
<path d="M122.1 2.7998L119.3 19.1998H117.7L119.9 6.7998L112.5 19.1998H111.4L108.2 6.5998L106 19.1998H104.5L107.3 2.7998H108.9L112.3 16.5998L120.4 2.7998H122.1Z" fill="white"/>
<path d="M127 4.3998L126 9.9998H133.4L133.2 11.5998H125.7L124.7 17.6998H133.1L132.9 19.1998H122.9L125.7 2.7998H135.7L135.4 4.3998H127Z" fill="white"/>
<path d="M148.8 8.2998C148.7 7.2998 148.5 6.2998 148 5.4998C147.5 4.5998 146.9 3.9998 146 3.4998C145.2 3.0998 144.3 2.7998 143.2 2.7998H138.7L135.9 19.1998H140.7C141.9 19.1998 143.1 18.8998 144.2 18.1998C145.3 17.5998 146.2 16.6998 146.9 15.5998C147.6 14.4998 148.1 13.1998 148.3 11.8998L148.6 10.1998C148.8 9.5998 148.8 8.9998 148.8 8.2998ZM147.2 9.9998L146.9 11.6998C146.6 13.4998 145.8 14.9998 144.6 16.0998C143.4 17.1998 142.1 17.7998 140.5 17.7998H137.7L140 4.3998H143.2C144.2 4.3998 145.1 4.6998 145.8 5.3998C146.5 5.9998 147 6.79981 147.1 7.89981C147.3 8.59981 147.3 9.2998 147.2 9.9998Z" fill="white"/>
<path d="M154.8 2.7998L152 19.1998H150.5L153.3 2.7998H154.8Z" fill="white"/>
<path d="M164.8 2.7998H163.4L154.7 19.1998H156.4L158.8 14.5998H165.4L166.3 19.1998H167.9L164.8 2.7998ZM159.7 13.0998L163.7 5.4998L165.1 13.0998H159.7Z" fill="white"/>
<path d="M0 0V22H24V0H0ZM3 18.7L13.5 4.8H8.1V3.2H17L5.3 18.7H3ZM16.1 17.2V18.7H7.2L18.9 3.2H21.2L10.7 17.2H16.1Z" fill="white"/>
</svg>
