<svg width="107" height="30" viewBox="0 0 107 30" fill="none" xmlns="http://www.w3.org/2000/svg">
<path fill-rule="evenodd" clip-rule="evenodd" d="M24.9468 8.104C27.156 8.104 28.9468 6.31314 28.9468 4.104C28.9468 1.89487 27.156 0.104004 24.9468 0.104004C22.7377 0.104004 20.9468 1.89487 20.9468 4.104C20.9468 6.31314 22.7377 8.104 24.9468 8.104Z" fill="white"/>
<path fill-rule="evenodd" clip-rule="evenodd" d="M24.9468 18.8892C27.156 18.8892 28.9468 17.0983 28.9468 14.8892C28.9468 12.68 27.156 10.8892 24.9468 10.8892C22.7377 10.8892 20.9468 12.68 20.9468 14.8892C20.9468 17.0983 22.7377 18.8892 24.9468 18.8892Z" fill="white"/>
<path fill-rule="evenodd" clip-rule="evenodd" d="M24.9468 29.6743C27.156 29.6743 28.9468 27.8835 28.9468 25.6744C28.9468 23.4652 27.156 21.6743 24.9468 21.6743C22.7377 21.6743 20.9468 23.4652 20.9468 25.6744C20.9468 27.8835 22.7377 29.6743 24.9468 29.6743Z" fill="white"/>
<path fill-rule="evenodd" clip-rule="evenodd" d="M14.4736 18.8892C16.6828 18.8892 18.4736 17.0983 18.4736 14.8892C18.4736 12.68 16.6828 10.8892 14.4736 10.8892C12.2645 10.8892 10.4736 12.68 10.4736 14.8892C10.4736 17.0983 12.2645 18.8892 14.4736 18.8892Z" fill="white"/>
<path fill-rule="evenodd" clip-rule="evenodd" d="M14.4736 29.6743C16.6828 29.6743 18.4736 27.8835 18.4736 25.6743C18.4736 23.4652 16.6828 21.6743 14.4736 21.6743C12.2645 21.6743 10.4736 23.4652 10.4736 25.6743C10.4736 27.8835 12.2645 29.6743 14.4736 29.6743Z" fill="white"/>
<path fill-rule="evenodd" clip-rule="evenodd" d="M4.00001 29.6743C6.20914 29.6743 8 27.8835 8 25.6744C8 23.4652 6.20914 21.6743 4.00001 21.6743C1.79087 21.6743 0 23.4652 0 25.6744C0 27.8835 1.79087 29.6743 4.00001 29.6743Z" fill="white"/>
<path d="M48.8277 23.7845C46.3922 23.7845 44.494 21.9221 44.494 18.9137C44.494 16.0126 46.3922 14.1502 48.8277 14.1502C51.1556 14.1502 53.0897 16.0484 53.0897 18.9137C53.0897 21.8863 51.1556 23.7845 48.8277 23.7845ZM44.2433 25.5753C45.5685 27.76 48.2188 28.5838 50.0454 28.5838C54.7014 28.5838 58.5694 24.6441 58.5694 18.9853C58.5694 13.5056 54.9521 9.35095 49.9379 9.35095C47.9323 9.35095 45.8192 10.1747 44.6373 12.0013V2.61768H39.1934V28.154H44.2433V25.5753Z" fill="white"/>
<path d="M67.9037 9.78037H62.4956V28.1536H67.9754V20.7398C67.9754 16.9076 69.8736 14.508 73.0253 14.508C73.5625 14.508 73.9565 14.5796 74.243 14.6871V9.49385C73.9565 9.3864 73.5267 9.35059 73.0969 9.35059C70.6615 9.35059 68.8708 10.7116 67.9037 12.9679V9.78037Z" fill="white"/>
<path d="M77.4387 28.1537H82.8826V9.78045H77.4387V28.1537ZM80.089 1.65039C78.4057 1.65039 77.0806 2.86811 77.0806 4.55143C77.0806 6.23474 78.4057 7.48828 80.089 7.48828C81.7724 7.48828 83.1333 6.23474 83.1333 4.55143C83.1333 2.86811 81.7724 1.65039 80.089 1.65039Z" fill="white"/>
<path d="M92.0525 18.9495L85.749 28.154H91.8376L95.2759 22.6743L98.7142 28.154H104.803L98.4993 18.9495L104.803 9.78076H98.6067L95.2759 15.2963L91.9451 9.78076H85.749L92.0525 18.9495Z" fill="white"/>
</svg>
