<svg width="127" height="29" viewBox="0 0 127 29" fill="none" xmlns="http://www.w3.org/2000/svg">
<g clip-path="url(#clip0_7745_4331)">
<path d="M8.75 18.924C13.016 18.924 14.68 16.319 14.68 11.862C14.68 7.406 12.734 4.299 8.875 4.299H4.55V18.924H8.75ZM0 0.408H9.44C15.432 0.408 19.291 5.241 19.291 11.862C19.291 15.502 18.067 18.704 15.714 20.681C14.051 22.061 11.886 22.846 9.063 22.846H0V0.408ZM32.286 14.813C32.286 11.674 30.812 9.54 28.208 9.54C25.572 9.54 24.128 11.674 24.128 14.813C24.128 17.951 25.572 20.053 28.208 20.053C30.812 20.053 32.286 17.951 32.286 14.813ZM19.799 14.813C19.799 10.011 23.219 6.308 28.208 6.308C33.196 6.308 36.616 10.011 36.616 14.813C36.616 19.613 33.196 23.317 28.208 23.317C23.218 23.317 19.799 19.614 19.799 14.813ZM37.321 14.813C37.321 10.011 40.459 6.308 45.353 6.308C49.527 6.308 52.099 8.725 52.664 12.208H48.491C48.209 10.796 47.111 9.728 45.542 9.728C42.969 9.728 41.652 11.706 41.652 14.813C41.652 17.857 42.875 19.897 45.479 19.897C47.205 19.897 48.429 18.987 48.711 17.167H52.821C52.539 20.587 49.871 23.317 45.573 23.317C40.491 23.317 37.321 19.614 37.321 14.813ZM63.931 22.847V20.964H63.837C62.739 22.439 61.484 23.286 59.225 23.286C55.648 23.286 53.64 20.996 53.64 17.48V6.747H57.875V16.758C57.875 18.641 58.723 19.677 60.542 19.677C62.55 19.677 63.774 18.171 63.774 16.037V6.747H68.041V22.847H63.931ZM88.83 22.847H93.096V6.747H88.83V22.847ZM88.83 4.497H93.096V0.507H88.83V4.497ZM106.13 14.09C106.13 11.737 104.875 9.729 102.302 9.729C100.137 9.729 98.694 11.423 98.694 14.122C98.694 16.852 100.137 18.453 102.334 18.453C105.032 18.453 106.13 16.475 106.13 14.09ZM94.866 23.317H99.1C99.446 24.321 100.355 25.106 102.332 25.106C104.748 25.106 105.909 23.945 105.909 21.748V19.99H105.815C104.873 21.057 103.65 21.873 101.61 21.873C98.034 21.873 94.52 19.049 94.52 14.185C94.52 9.383 97.406 6.308 101.485 6.308C103.493 6.308 104.967 7.092 105.94 8.442H106.003V6.747H110.113V21.622C110.113 23.882 109.391 25.419 108.199 26.518C106.849 27.773 104.779 28.338 102.395 28.338C98.002 28.338 95.305 26.455 94.866 23.317ZM116.117 8.944H116.211C117.309 7.218 118.784 6.308 120.98 6.308C124.306 6.308 126.533 8.818 126.533 12.333V22.846H122.266V12.961C122.266 11.235 121.262 10.011 119.474 10.011C117.591 10.011 116.211 11.517 116.211 13.714V22.846H111.944V6.747H116.117V8.944ZM79.106 9.32C75.78 8.6 74.211 8.066 74.211 6.245C74.211 4.645 75.811 3.609 78.259 3.609C80.492 3.609 82.199 4.657 82.549 6.747H86.925C86.48 2.39 83.247 0 78.29 0C73.302 0 69.693 2.291 69.693 6.716C69.693 11.392 73.364 12.459 77.38 13.369C80.8 14.154 82.934 14.593 82.934 16.789C82.934 18.861 80.894 19.677 78.573 19.677C75.373 19.677 73.835 18.61 73.521 15.911H69.066C69.223 20.65 72.674 23.348 78.761 23.348C83.812 23.348 87.483 20.807 87.483 16.256C87.483 11.423 83.718 10.325 79.106 9.32Z" fill="white"/>
</g>
<defs>
<clipPath id="clip0_7745_4331">
<rect width="127" height="29" fill="white"/>
</clipPath>
</defs>
</svg>
