<svg width="70" height="20" viewBox="0 0 70 20" fill="none" xmlns="http://www.w3.org/2000/svg">
<g clip-path="url(#clip0_7745_4231)">
<path d="M4.21453 19.6886C3.931 20.0006 3.59547 20.0221 3.42045 19.9881C3.12592 19.9126 2.73588 19.8511 2.51035 19.6511C2.50185 19.6431 2.49335 19.6346 2.48435 19.6271C2.41814 19.5689 2.37556 19.4885 2.36468 19.401C2.35381 19.3135 2.37539 19.2251 2.42535 19.1525C2.99391 18.3184 4.17403 16.9358 4.17403 16.9358C4.17403 16.9358 6.08423 14.7846 8.05693 12.1483C8.10094 12.0933 8.12694 12.0278 8.17995 11.9348V11.9333C7.87541 11.8858 7.63989 11.9648 7.39886 12.0288C6.17874 12.3588 4.96061 12.6958 3.73348 13.0104C2.80539 13.2484 1.85429 13.4129 0.900187 13.5524C0.730169 13.5774 0.554151 13.6004 0.385633 13.5864C0.280122 13.5779 0.16661 13.5134 0.0901024 13.4469C-0.0399111 13.3339 -0.0279099 13.2019 0.117605 13.1069C0.239618 13.0279 0.379633 12.9589 0.524148 12.9159C1.09421 12.7438 1.67027 12.5813 2.24433 12.4188C3.856 11.9638 5.46866 11.5117 7.08033 11.0562C8.00143 10.7961 8.91602 10.5231 9.83812 10.2661C10.031 10.2149 10.2122 10.1269 10.3717 10.0071L15.1932 6.02364C15.0167 6.01214 14.9201 5.98614 14.8341 6.00264C14.3136 6.10165 13.794 6.21016 13.273 6.31567C13.0049 6.36968 12.7359 6.42168 12.4664 6.47569C11.3403 6.70071 10.2172 6.93574 9.10104 7.19626C8.76751 7.27427 8.44297 7.39129 8.10594 7.43929C7.51688 7.5233 7.34486 7.43179 7.08433 6.99274C6.84131 6.5837 6.89931 6.44419 7.43437 6.27067C7.82141 6.14466 8.22045 6.04064 8.61799 5.93963C9.91363 5.6136 11.2058 5.27757 12.5094 4.97603C13.546 4.73551 14.5951 4.54049 15.6382 4.32647C15.8732 4.27896 16.1078 4.22095 16.3443 4.18145C16.3443 4.18145 27.0774 1.57618 39.4377 0.295546C40.3128 0.211037 41.1879 0.109026 42.061 0.00751571C42.247 -0.0139865 42.4015 0.00751571 42.539 0.113027C42.9891 0.460063 43.2231 0.902109 43.2861 1.40766C43.3111 1.61518 43.1881 1.7377 42.9291 1.7677C42.159 1.85571 41.3879 1.94272 40.6153 2.00272C32.216 2.46327 18.7295 5.32407 18.7295 5.32407C18.131 5.43508 17.6794 5.53059 17.0614 5.6426C16.9454 5.6616 16.8298 5.68661 16.6738 5.71811C16.7113 5.81312 16.7213 5.90063 16.7768 5.95714C16.8954 6.07915 17.0474 6.17866 17.1694 6.29917C17.3909 6.51819 17.3894 6.68071 17.1454 6.86823C16.2233 7.5788 15.4132 8.38789 14.4431 9.05846C14.3561 9.12347 14.2066 9.25248 14.0571 9.38849C14.2521 9.37349 14.3941 9.34399 14.4696 9.33299C14.9297 9.26248 15.3882 9.18197 15.8482 9.11396C16.7718 9.01195 17.2839 8.91994 17.5469 8.86394C17.6939 8.83194 17.834 8.77293 17.962 8.69242L18.6125 8.27738C18.7676 8.15886 18.9296 8.04835 19.0846 7.93134C19.2191 7.82933 19.3636 7.82283 19.5161 7.88734C20.0622 8.11736 20.2762 8.29238 20.4697 8.77943C20.5587 9.00295 20.4532 9.02096 20.2682 9.21448C19.6041 9.87904 19.2001 10.1406 18.4865 10.7836C17.1089 11.9973 15.1677 13.904 15.1677 13.904C15.0297 14.024 14.7276 14.3605 14.7816 14.419C14.8191 14.467 15.0207 14.3375 15.0772 14.3C15.8662 13.7699 16.6488 13.2344 17.4399 12.7083C17.849 12.4368 18.273 12.1813 18.693 11.9233C19.5651 11.3897 20.4217 10.8386 21.3163 10.3356C22.1819 9.85004 22.9015 9.25248 23.547 8.57291C24.0126 8.08236 24.5182 7.61931 25.0092 7.14476C25.0992 7.05825 25.2002 6.97874 25.2992 6.89223C25.6168 6.69321 26.1668 7.35978 26.4168 7.75232C26.6169 8.06586 26.6134 8.34989 26.3073 8.63241C25.7189 9.16879 25.1401 9.7156 24.5712 10.2726C24.2591 10.5796 23.9111 10.8601 23.6361 11.1977C23.5005 11.3632 23.2865 11.4817 23.1295 11.6377C22.6225 12.1398 22.1129 12.6403 21.6293 13.1589C21.2998 13.5124 21.0118 13.8925 20.7098 14.2635C20.6647 14.32 20.6397 14.388 20.6097 14.442C20.7498 14.563 20.8598 14.497 20.9438 14.4285C20.9438 14.4285 26.4734 9.74153 28.269 8.55041C28.7391 8.22187 29.2226 7.90984 29.6967 7.59781C29.8867 7.47179 30.1307 7.45179 30.3363 7.5513C30.5613 7.66181 30.7198 7.83433 30.8913 8.00435C31.1438 8.25438 31.0318 8.5214 30.9953 8.79943C30.9931 8.81858 30.9953 8.83799 31.0018 8.85614C31.0083 8.87429 31.0189 8.89068 31.0328 8.90405C31.0467 8.91741 31.0635 8.92738 31.0819 8.93317C31.1003 8.93897 31.1198 8.94043 31.1388 8.93745C31.3039 8.90894 31.4139 8.79793 31.5364 8.72742C31.9614 8.4824 32.3745 8.22187 32.7905 7.96535C33.331 7.59895 33.858 7.21316 34.3707 6.80872C34.3707 6.80872 35.3673 6.03264 36.2819 6.34068C36.8044 6.62571 36.9564 6.92974 36.9604 7.41079C36.9554 7.5238 36.9314 7.64581 36.8694 7.74482C36.8694 7.74482 32.8235 12.4803 31.5814 13.5704C31.2824 13.8695 30.9953 14.178 30.6923 14.475C30.4168 14.7451 30.0842 14.7225 29.8267 14.4385C29.6037 14.1945 29.5812 13.9485 29.7422 13.6669C30.1147 13.0219 30.5373 12.4068 31.0998 11.8553C31.6534 11.3132 32.1704 10.7431 32.695 10.1796C33.1637 9.67437 33.6271 9.16429 34.0851 8.64942C34.2072 8.5124 34.5132 8.20287 34.4462 8.16537C34.3382 7.99785 33.9581 7.94034 33.3206 8.32138C32.914 8.59441 32.5695 8.80793 32.1514 9.09146C28.7971 11.1747 26.7314 13.9315 26.7314 13.9315C26.5489 14.1265 26.4053 14.3455 26.2408 14.5515C26.0673 14.7706 25.9008 14.9946 25.7138 15.2046C25.5703 15.3656 25.4137 15.3906 25.2137 15.2811C24.8807 15.1001 24.5852 14.8801 24.3726 14.5945C24.2566 14.4395 24.2451 14.296 24.3636 14.11C25.0382 13.0494 25.8243 12.0503 26.7064 11.1047C26.7779 11.0277 26.9414 10.8561 26.9064 10.8261C26.8194 10.7546 26.4333 11.0137 26.2133 11.2047L22.3744 14.2155C21.7654 14.6735 21.1918 15.1606 20.6888 15.7027C20.3362 16.0817 19.9877 16.4612 19.6316 16.8378C19.5769 16.8973 19.5039 16.9383 19.4248 16.9549C19.3456 16.9716 19.2632 16.9632 19.1891 16.9308C18.9851 16.8399 18.791 16.7281 18.61 16.5972C18.1385 16.2602 18.08 15.8572 18.225 15.3806C18.404 14.7956 18.752 14.271 19.0431 13.7254C19.1421 13.5389 19.2691 13.3624 19.3751 13.1789C19.4101 13.1189 19.5151 12.9539 19.4581 12.9259C19.3876 12.8644 18.7836 13.1864 18.522 13.3609C17.8955 13.778 17.2869 14.2145 16.6648 14.637C16.2613 14.9126 15.8422 15.1746 15.4407 15.4536C14.9186 15.8162 14.4016 16.1837 13.8945 16.5622C13.8945 16.5622 13.3495 16.8743 12.7594 16.4802C12.1459 16.0737 12.0779 15.7027 12.2614 15.0711C12.3714 14.699 12.5079 14.336 12.7774 14.026C13.1348 13.6089 13.5075 13.2051 13.8945 12.8154C14.4456 12.2678 15.0182 11.7372 15.5882 11.2052C15.8207 10.9872 16.0713 10.7836 16.3078 10.5681C16.3353 10.5431 16.3658 10.5191 16.3943 10.4941C16.5378 10.3691 16.4323 10.1341 16.2433 10.1621L12.4894 10.7886C12.2264 10.8301 11.8223 10.8751 11.6263 11.0312C10.3412 12.2088 9.58059 13.1289 8.48848 14.549L4.21453 19.6876V19.6886Z" fill="white"/>
<path d="M42.5073 13.388C42.0062 13.6345 41.4336 13.4645 41.2376 13.0154C41.1846 12.8954 41.2086 12.7889 41.2916 12.6844C41.4751 12.4544 41.6492 12.2163 41.8427 11.9938C42.6543 11.0577 43.2858 10.0336 43.9604 9.02951C43.9979 8.973 44.0054 8.90249 44.0519 8.76448C43.9064 8.83349 43.8294 8.85699 43.7729 8.89849C42.0492 10.1606 40.2675 11.3672 38.7039 12.7724C38.6761 12.7973 38.6558 12.8294 38.6453 12.8652C38.6348 12.901 38.6345 12.939 38.6444 12.9749C38.7314 13.3 38.8159 13.613 38.8989 13.9265C38.9214 14.0105 38.9379 14.0965 38.9564 14.1815C39.0614 14.6611 38.9174 15.0991 38.6268 15.5142C38.0293 16.5068 36.1196 17.5674 36.1196 17.5674C35.664 17.8104 35.1985 18.0479 34.6384 18.0454C34.4384 18.0454 34.2149 18.0189 34.0484 17.9384C33.7893 17.8106 33.5476 17.6505 33.3288 17.4619C32.9803 17.1619 33.0368 16.8013 33.2318 16.4503C33.3933 16.1597 33.5553 15.8677 33.7528 15.5932C34.3004 14.8311 34.958 14.1165 35.668 13.476C36.1405 13.0494 36.6298 12.6419 37.1347 12.2543C37.2997 12.1293 37.3147 11.9233 37.2517 11.7358C37.1522 11.4438 37.0482 11.1547 36.9472 10.8637C36.6656 10.0561 36.7822 9.25353 37.0632 8.46195C37.3432 7.66836 37.8568 6.97629 38.4823 6.34073C39.0259 5.78867 39.6075 5.26561 40.3165 4.86157C40.6276 4.68405 40.9081 4.50253 41.3031 4.40202C41.3106 4.40102 41.3181 4.39852 41.3256 4.39702C41.8792 4.30651 42.1047 4.32202 42.4227 4.53304C42.8028 4.78456 43.0973 5.1056 43.2328 5.50914C43.2848 5.66016 43.3688 5.84017 43.2093 5.96219C43.0053 6.1172 42.7538 6.27272 42.4633 6.18221C41.8757 5.99869 41.4376 6.20221 41.0311 6.53475C40.6461 6.84928 40.2485 7.15381 39.876 7.47834C39.2122 8.05196 38.6918 8.77291 38.3563 9.58356C38.1553 10.0676 37.9953 10.5572 38.0243 11.0737C38.0293 11.1522 38.0443 11.2567 38.1213 11.3813C38.3713 11.2072 38.5588 11.1002 38.7139 10.9672C39.5039 10.4071 39.639 10.3131 40.1215 10.0096C40.3985 9.83609 40.6576 9.64107 40.9206 9.45105C42.0267 8.65597 43.1308 7.85938 44.2359 7.0633C44.578 6.81628 44.9255 6.57225 45.1355 6.22271C45.1505 6.19771 45.178 6.17771 45.2135 6.15471C45.2439 6.13522 45.2791 6.12432 45.3151 6.12317C45.3512 6.12203 45.387 6.13068 45.4186 6.14821L45.7241 6.31972C45.7609 6.34041 45.8034 6.34897 45.8454 6.34422C45.8874 6.33946 45.9268 6.32162 45.9581 6.29322C46.2411 6.02619 46.4732 5.72466 46.6917 5.38963C46.7147 5.35347 46.7489 5.32575 46.789 5.31061C46.8291 5.29546 46.873 5.29371 46.9142 5.30562C46.9737 5.32162 47.0302 5.34212 47.0767 5.37213C47.4893 5.63865 47.7183 6.00519 47.7968 6.43424C47.8178 6.55625 47.7798 6.69426 47.7348 6.81778C47.6833 6.94437 47.6134 7.06266 47.5273 7.16881C47.0602 7.76487 46.5722 8.34894 46.1206 8.953C45.7696 9.42105 45.4741 9.9166 45.133 10.3896C44.7745 10.8867 44.393 11.3708 44.0204 11.8603C44.0204 11.8603 42.9563 13.1539 42.5123 13.3865L42.5073 13.388ZM34.6724 17.1974C34.7579 17.1684 34.835 17.1449 34.909 17.1158C35.5105 16.8758 36.0076 16.5128 36.4941 16.1382C37.2002 15.5957 37.6027 14.9181 37.7778 14.14C37.8243 13.9315 37.8543 13.71 37.7048 13.465C37.6202 13.4065 37.2267 13.808 37.0467 13.988C36.2066 14.7846 35.4575 15.6007 34.7154 16.4428C34.588 16.5819 34.4839 16.7406 34.4069 16.9128C34.4069 16.9128 34.1834 17.3624 34.6699 17.1979L34.6724 17.1974ZM58.7765 4.73806C57.7003 5.28662 57.0008 6.0642 56.2837 6.86078C55.8296 7.36383 55.5416 7.93739 55.2521 8.50745C55.1343 8.74986 54.9309 8.93997 54.681 9.04101C54.1415 9.27353 53.6129 9.52656 53.0679 9.75158C51.9925 10.1946 50.9147 10.6317 49.8345 11.0627C49.193 11.3207 49.4935 11.2412 48.8454 11.4878C48.7689 11.5178 48.5564 11.6013 48.5224 11.5458C48.4609 11.4253 48.7989 11.1092 48.9939 10.9482L49.0709 10.8802L52.7648 7.36383C53.2089 6.93729 53.6504 6.50974 54.0785 6.0727C54.2745 5.87268 54.3275 5.63765 54.2685 5.38263C54.2093 5.12159 54.0825 4.88069 53.9009 4.68405C53.6744 4.43903 53.4029 4.28401 52.9698 4.40953C52.1083 4.58304 51.1922 4.99959 50.5041 5.20111C49.9165 5.37363 49.3465 5.58615 48.7864 5.77967C48.7439 5.79426 48.7071 5.82197 48.6813 5.85881C48.6555 5.89565 48.642 5.93973 48.6429 5.98469C48.6509 6.29822 48.7564 6.51974 48.9779 6.72577C49.286 7.0128 49.344 7.0213 49.782 6.88428C50.2046 6.75377 50.6296 6.62776 51.0561 6.50424L51.1117 6.48824C51.2122 6.45924 51.2977 6.56975 51.2437 6.65926C51.1822 6.75977 51.0841 6.83178 51.0021 6.90729C50.5416 7.37133 50.4876 7.44284 49.969 7.93489C48.7979 8.964 47.7348 10.2221 46.6377 11.3092C46.4147 11.5308 46.2146 11.7688 46.0061 11.9998C45.8591 12.1638 45.8751 12.5539 46.0121 12.7474C46.4817 13.2504 46.8152 13.3025 47.5903 13.1259L53.7084 10.7257C54.11 10.5632 54.52 10.4187 54.9476 10.3241C55.1276 10.5782 55.2746 10.8197 55.4596 11.0392C55.7871 11.4278 56.2412 11.5763 56.8122 11.4543C56.8122 11.4543 62.0803 10.6842 69.5726 7.50585C69.7761 7.44934 69.8831 7.32083 69.8856 7.14481C69.8906 6.59875 69.4381 6.0492 69.1295 6.0867C69.0455 6.0857 68.9055 6.24522 68.84 6.28922C68.371 6.60425 67.9769 6.77377 67.3643 7.0128C60.7907 9.79059 56.8893 10.1881 56.8893 10.1881C56.7772 10.2161 56.6562 10.2196 56.5417 10.2246C56.4397 10.2286 56.3442 10.1556 56.3392 10.0536C56.3327 9.9416 56.7982 9.63207 56.9018 9.57456C57.2653 9.37204 57.4853 9.29153 57.6893 9.19052C59.4935 8.16542 60.4686 6.66026 60.9682 5.95069C61.4672 5.24111 60.9717 4.54654 60.1326 4.45103C60.1326 4.45103 59.6695 4.28001 58.7765 4.73556V4.73806ZM57.6563 7.48335C56.9118 7.87989 58.5359 6.0817 58.935 6.0882C59.57 6.0992 57.3018 7.73637 57.6563 7.48335ZM48.1878 3.06388C48.1878 3.06388 48.8694 2.2693 49.3955 3.1664C49.5515 3.42692 49.506 3.64195 49.32 3.85497C49.32 3.85497 48.7424 4.61705 48.5749 4.64755C48.2304 4.74056 47.9308 4.03849 47.8958 3.65845C47.8768 3.40442 48.1878 3.06388 48.1878 3.06388Z" fill="white"/>
</g>
<defs>
<clipPath id="clip0_7745_4231">
<rect width="70" height="20" fill="white"/>
</clipPath>
</defs>
</svg>
