<svg width="140" height="26" viewBox="0 0 140 26" fill="none" xmlns="http://www.w3.org/2000/svg">
<g clip-path="url(#clip0_7745_4315)">
<path d="M0 0H10.2638C12.2188 0 13.685 0.488751 14.7711 1.30334C15.9659 2.28084 16.6175 3.69279 16.6175 5.43057C16.6175 7.43988 15.803 8.68891 14.1738 9.44919V9.5578C16.346 10.2638 17.595 12.2188 17.595 14.5539C17.595 16.7805 16.7261 18.5182 15.3142 19.6043C14.1195 20.4732 12.5989 20.8534 10.5353 20.8534H0V0ZM9.23196 8.14585C10.3181 8.14585 11.1327 7.54849 11.1327 6.29946C11.1327 5.10473 10.3181 4.50737 9.17765 4.50737H5.64779V8.09154H9.23196V8.14585ZM9.72071 16.2374C10.9697 16.2374 11.8929 15.4771 11.8929 14.1195C11.8929 12.6532 10.9154 12.0016 9.72071 12.0016H5.7021V16.2917H9.72071V16.2374Z" fill="white"/>
<path d="M18.5181 0H23.8943V20.9077H18.5181V0Z" fill="white"/>
<path d="M24.9805 13.4676C24.9805 8.74299 28.0216 5.59326 32.7462 5.59326C37.4708 5.59326 40.4576 8.7973 40.4576 13.4676C40.4576 18.1922 37.4708 21.3419 32.7462 21.3419C28.0216 21.3419 24.9805 18.1922 24.9805 13.4676ZM35.0813 13.4676C35.0813 10.8609 34.2667 9.23174 32.6376 9.23174C31.0084 9.23174 30.2481 10.8609 30.2481 13.4676C30.2481 16.0743 31.0084 17.7577 32.6376 17.7577C34.2667 17.7034 35.0813 16.0743 35.0813 13.4676Z" fill="white"/>
<path d="M41.0552 13.4676C41.0552 8.74299 44.0963 5.59326 48.8209 5.59326C53.5455 5.59326 56.478 8.74299 56.478 13.4676C56.478 18.1922 53.4912 21.3419 48.7666 21.3419C44.0963 21.3419 41.0552 18.1922 41.0552 13.4676ZM51.156 13.4676C51.156 10.8609 50.3414 9.23174 48.7123 9.23174C47.0831 9.23174 46.3228 10.8609 46.3228 13.4676C46.3228 16.0743 47.0831 17.7577 48.7123 17.7577C50.3414 17.7034 51.156 16.0743 51.156 13.4676Z" fill="white"/>
<path d="M57.564 5.97351H62.5601V8.20004H62.6687C63.6462 6.46226 65.0038 5.53906 67.1761 5.53906C69.0768 5.53906 70.4887 6.46226 71.1947 8.09143H71.3033C72.498 6.13643 74.0729 5.53906 75.9193 5.53906C79.3948 5.53906 80.8611 8.09143 80.8611 11.5127V20.8533H75.6478V12.4359C75.6478 10.9153 75.159 9.93782 73.8557 9.93782C72.5523 9.93782 71.9007 11.1325 71.9007 12.7617V20.8533H66.6873V12.4359C66.6873 10.9153 66.1986 9.93782 64.8952 9.93782C63.5919 9.93782 62.9402 11.1325 62.9402 12.7617V20.8533H57.564V5.97351Z" fill="white"/>
<path d="M87.4323 18.8984H87.3779V20.8534H82.3818V0H87.5952V7.49418H87.7038C88.6813 6.19085 90.0389 5.48487 91.9396 5.48487C95.6867 5.48487 97.859 8.85182 97.859 13.3592C97.859 18.4096 95.5238 21.3421 91.6138 21.3421C89.9846 21.3421 88.3011 20.5818 87.4323 18.8984ZM92.4827 13.3049C92.4827 10.9154 91.6138 9.34058 90.0389 9.34058C88.4098 9.34058 87.4323 10.9154 87.4323 13.3049C87.4323 15.6943 88.4641 17.2692 90.0389 17.2692C91.6138 17.2692 92.4827 15.7486 92.4827 13.3049Z" fill="white"/>
<path d="M98.4561 13.4134C98.4561 8.7431 101.551 5.53906 106.005 5.53906C108.231 5.53906 109.915 6.24504 111.218 7.49407C112.956 9.17754 113.716 11.7842 113.662 14.8253H103.669C103.887 16.6717 104.756 17.6492 106.33 17.6492C107.254 17.6492 108.068 17.2148 108.394 16.2373H113.444C112.576 19.6585 109.915 21.342 106.167 21.342C101.551 21.2877 98.4561 18.138 98.4561 13.4134ZM103.669 11.8385H108.448C108.34 10.0464 107.362 9.12324 106.113 9.12324C104.647 9.06893 103.832 10.1007 103.669 11.8385Z" fill="white"/>
<path d="M119.581 8.52615H119.69C120.776 6.46253 122.188 5.64795 123.98 5.64795C124.414 5.64795 124.686 5.70225 124.849 5.81087V10.3725H124.74C121.645 9.82949 119.853 11.2957 119.853 14.6627V20.9078H114.585V5.97378H119.581V8.52615Z" fill="white"/>
<path d="M125.392 20.9077H130.442C130.659 21.5593 131.311 22.1567 132.56 22.1567C134.243 22.1567 134.841 21.1249 134.841 19.55V18.4639H134.732C133.918 19.4414 132.777 20.1474 131.148 20.1474C127.944 20.1474 125.12 17.7579 125.12 13.0877C125.12 8.79751 127.401 5.48486 130.877 5.48486C132.886 5.48486 134.081 6.29945 134.895 7.54848H135.004V5.91931H140V18.8441C140 21.2335 139.185 23.0799 137.936 24.166C136.633 25.3064 134.787 25.7952 132.669 25.7952C128.65 25.8495 125.88 24.2203 125.392 20.9077ZM135.058 12.8704C135.058 11.024 134.189 9.50348 132.669 9.50348C131.202 9.50348 130.279 10.8068 130.279 12.8704C130.279 14.8797 131.202 16.2917 132.669 16.2917C134.135 16.2917 135.058 14.8254 135.058 12.8704Z" fill="white"/>
</g>
<defs>
<clipPath id="clip0_7745_4315">
<rect width="140" height="25.8495" fill="white"/>
</clipPath>
</defs>
</svg>
