<svg width="116" height="23" viewBox="0 0 116 23" fill="none" xmlns="http://www.w3.org/2000/svg">
<g clip-path="url(#clip0_7745_4200)">
<mask id="mask0_7745_4200" style="mask-type:luminance" maskUnits="userSpaceOnUse" x="0" y="0" width="116" height="23">
<path d="M115.119 0.530762H0.618652V22.5308H115.119V0.530762Z" fill="white"/>
</mask>
<g mask="url(#mask0_7745_4200)">
<path fill-rule="evenodd" clip-rule="evenodd" d="M19.921 18.6978C17.9033 20.9993 14.9354 22.4533 11.6265 22.4533C10.7982 22.4533 9.99122 22.3621 9.21519 22.1894L16.3886 15.1631L19.921 18.6978ZM20.5306 17.937C21.8531 16.128 22.6334 13.9008 22.6334 11.492C22.6334 10.7301 22.5554 9.98649 22.4068 9.26839L17.0809 14.485L20.5306 17.937ZM15.7035 14.4778L4.43044 3.19755C2.09644 5.2075 0.619629 8.178 0.619629 11.492C0.619629 16.3306 3.76778 20.4369 8.13554 21.8905L15.7035 14.4778ZM5.1973 2.59401C7.00603 1.29566 9.22659 0.530762 11.6265 0.530762C16.5494 0.530762 20.7174 3.74915 22.1246 8.18834L16.3959 13.7996L5.1973 2.59401Z" fill="white"/>
<path d="M40.0679 18.0308C42.7518 18.0308 44.6196 16.5435 44.6196 14.4135C44.6196 12.9996 43.6948 11.7878 42.4253 11.4206V11.237C43.4771 10.8881 44.2569 9.80477 44.2569 8.55619C44.2569 6.48132 42.516 5.03076 39.9771 5.03076H34.1196V18.0308H40.0679ZM36.4046 6.90364H39.6144C40.9926 6.90364 41.9539 7.65646 41.9539 8.70307C41.9539 9.74966 40.9926 10.4842 39.6144 10.4842H36.4046V6.90364ZM36.4046 12.2652H39.6689C41.2103 12.2652 42.3165 13.0731 42.3165 14.1933C42.3165 15.3315 41.2103 16.1579 39.6689 16.1579H36.4046V12.2652Z" fill="white"/>
<path d="M47.2415 18.0308L50.7128 12.559H50.8974L54.4793 18.0308H57.1196L52.4114 11.1635L56.9719 5.03076H54.3131L50.8974 9.87819H50.7128L47.4076 5.03076H44.7859L49.1803 11.1635L44.6196 18.0308H47.2415Z" fill="white"/>
<path d="M67.0373 18.0308C70.2314 18.0308 72.1196 16.5069 72.1196 14.0686C72.1196 11.1284 69.4725 10.6264 67.249 10.2678C65.5196 9.99887 64.002 9.72997 64.002 8.27777C64.002 7.13036 64.9725 6.35945 66.7373 6.35945C68.6255 6.35945 69.7196 7.29171 69.7196 8.88734H71.8019C71.8019 6.21602 69.8431 4.53076 66.702 4.53076C63.5961 4.53076 61.7784 6.0726 61.7784 8.4212C61.7784 11.3256 64.4785 11.8455 66.702 12.1862C68.396 12.4551 69.8961 12.724 69.8961 14.23C69.8961 15.467 68.8725 16.2021 67.0901 16.2021C64.9903 16.2021 63.7725 15.1801 63.7725 13.4949H61.6196C61.6196 16.2738 63.7019 18.0308 67.0373 18.0308Z" fill="white"/>
<path d="M77.073 18.0308C77.5371 18.0308 78.1728 17.9403 78.6196 17.7771V16.2373C78.3101 16.3279 77.898 16.3823 77.6573 16.3823C76.8664 16.3823 76.3855 15.8025 76.3855 14.9873V10.0417H78.5169V8.50179H76.3855L76.4021 5.53076H74.8896L74.4775 8.50179H73.1196V10.0417H74.4428V15.0779C74.4428 16.8533 75.4745 18.0308 77.073 18.0308Z" fill="white"/>
<path d="M86.5016 8.53076V13.7965C86.5016 15.2079 85.339 16.2394 83.951 16.2394C82.5636 16.2394 81.7575 15.2803 81.7575 13.9413V8.53076H79.6201V14.086C79.6201 16.366 81.1385 18.0308 83.4454 18.0308C84.6261 18.0308 85.6199 17.4879 86.3139 16.4926H86.5016V17.7231H88.6201V8.53076H86.5016Z" fill="white"/>
<path d="M94.2376 18.0308C95.638 18.0308 96.7103 17.4594 97.365 16.4773H97.547V17.7094H99.6196V4.53076H97.547V9.8165H97.365C96.7103 8.8522 95.583 8.29862 94.2193 8.29862C91.6013 8.29862 89.6196 10.3165 89.6196 13.1736C89.6196 16.0308 91.6013 18.0308 94.2376 18.0308ZM94.656 16.2629C92.9466 16.2629 91.674 14.9415 91.674 13.1736C91.674 11.4236 92.9284 10.0665 94.656 10.0665C96.383 10.0665 97.638 11.4236 97.638 13.1736C97.638 14.9058 96.383 16.2629 94.656 16.2629Z" fill="white"/>
<path d="M102.61 7.1832C103.508 7.1832 104.12 6.63442 104.12 5.84784C104.12 5.07954 103.508 4.53076 102.61 4.53076C101.733 4.53076 101.12 5.07954 101.12 5.84784C101.12 6.63442 101.733 7.1832 102.61 7.1832ZM103.773 18.0308V8.73807H101.468V18.0308H103.773Z" fill="white"/>
<path d="M110.12 18.0308C113.08 18.0308 115.12 16.1134 115.12 13.2895C115.12 10.4656 113.062 8.53076 110.12 8.53076C107.141 8.53076 105.12 10.4656 105.12 13.2895C105.12 16.1134 107.159 18.0308 110.12 18.0308ZM110.12 16.3051C108.387 16.3051 107.159 15.05 107.159 13.2895C107.159 11.5289 108.387 10.2565 110.12 10.2565C111.834 10.2565 113.08 11.5289 113.08 13.2895C113.08 15.05 111.834 16.3051 110.12 16.3051Z" fill="white"/>
</g>
</g>
<defs>
<clipPath id="clip0_7745_4200">
<rect width="116" height="23" fill="white"/>
</clipPath>
</defs>
</svg>
