<svg width="166" height="22" viewBox="0 0 166 22" fill="none" xmlns="http://www.w3.org/2000/svg">
<g clip-path="url(#clip0_7745_4214)">
<mask id="mask0_7745_4214" style="mask-type:luminance" maskUnits="userSpaceOnUse" x="0" y="0" width="166" height="22">
<path d="M165.572 0H0V22H165.572V0Z" fill="white"/>
</mask>
<g mask="url(#mask0_7745_4214)">
<path d="M87.8122 13.7729V17.365H83.9424V13.7729H87.8122Z" fill="white"/>
<path d="M3.90308 17.3649V8.29393H0L0.0244784 5.69819H3.90308V4.92343C3.88738 4.01424 4.17463 3.12274 4.72556 2.37083C5.27387 1.6241 6.05147 1.04322 7.05837 0.628202C8.13906 0.196186 9.3064 -0.0175671 10.4829 0.0011287C11.5143 -0.0101897 12.5413 0.128179 13.5268 0.411226C14.3651 0.645274 15.1425 1.03699 15.8106 1.562C16.4152 2.05654 16.7824 2.6147 16.9121 3.23647L13.1302 4.1714C12.979 3.7248 12.6637 3.34164 12.2392 3.08879C11.7695 2.80264 11.2172 2.65567 10.6555 2.66733C9.87134 2.66733 9.27001 2.90286 8.8514 3.37393C8.43279 3.84499 8.22396 4.45994 8.22477 5.21879V5.69819H16.0578V8.29393H8.22477V17.3638L3.90308 17.3649Z" fill="white"/>
<path d="M19.1484 17.365V0.455566H23.4444V17.365H19.1484Z" fill="white"/>
<path d="M115.819 0.0102539V3.72953H111.467V0.0102539H115.819Z" fill="white"/>
<path d="M144.556 0.0102539V3.72953H140.204V0.0102539H144.556Z" fill="white"/>
<path d="M90.5234 17.366V5.69922H94.8454V8.73008C95.132 8.02715 95.5895 7.39528 96.1829 6.88409C96.8032 6.35697 97.5291 5.9482 98.319 5.68104C99.2037 5.38302 100.14 5.23638 101.081 5.24822C102.538 5.24822 103.814 5.54055 104.911 6.12522C105.997 6.70075 106.882 7.55358 107.461 8.5824C108.066 9.63739 108.369 10.8411 108.37 12.1938V17.366H104.074V12.3073C104.089 11.504 103.888 10.7099 103.486 9.99787C103.115 9.34359 102.555 8.79884 101.867 8.42564C101.141 8.04491 100.318 7.8523 99.4856 7.86784C98.652 7.856 97.8305 8.04841 97.1033 8.42564C96.4009 8.79641 95.8236 9.34063 95.4341 9.99787C95.0149 10.7139 94.8044 11.5188 94.8218 12.3335V17.3693L90.5234 17.366Z" fill="white"/>
<path d="M115.787 5.69922H111.467V17.366H115.787V5.69922Z" fill="white"/>
<path d="M144.54 5.69971H140.22V21.957H144.54V5.69971Z" fill="white"/>
<path d="M119.374 17.366V5.6992H123.695V8.73008C123.981 8.02709 124.439 7.39528 125.033 6.88403C125.652 6.3571 126.376 5.94832 127.166 5.68103C128.05 5.38312 128.985 5.23648 129.927 5.24821C131.383 5.24821 132.66 5.54054 133.757 6.1252C134.845 6.70197 135.731 7.55641 136.311 8.58691C136.915 9.6419 137.218 10.8457 137.219 12.1983V17.3705H132.923V12.3073C132.939 11.5041 132.737 10.71 132.337 9.99787C131.966 9.34184 131.404 8.79588 130.714 8.42221C129.989 8.04135 129.167 7.84866 128.334 7.86441C127.501 7.85243 126.68 8.04485 125.952 8.42221C125.25 8.79413 124.673 9.33955 124.284 9.99787C123.865 10.7137 123.654 11.5188 123.672 12.3334V17.3694L119.374 17.366Z" fill="white"/>
<path d="M158.145 17.0015C156.803 17.5491 155.273 17.8229 153.554 17.8229C152.403 17.8385 151.255 17.6852 150.155 17.3685C149.147 17.0655 148.365 16.6555 147.81 16.1382C147.254 15.6209 146.976 15.0529 146.975 14.4341C146.975 13.7525 147.277 13.1221 147.883 12.5427C148.488 11.9633 149.334 11.4863 150.42 11.1113C151.62 10.7168 152.871 10.4679 154.14 10.3707L160.351 9.91627C160.581 9.89165 160.8 9.81354 160.989 9.68907C161.071 9.64003 161.139 9.57281 161.186 9.49356C161.233 9.41424 161.258 9.3253 161.259 9.23467C161.259 8.99308 161.067 8.76171 160.683 8.54056C160.297 8.32023 159.774 8.15324 159.111 8.03847C158.394 7.92053 157.667 7.86347 156.939 7.86805C155.905 7.8698 154.874 7.95719 153.857 8.12936C152.878 8.28908 151.916 8.53323 150.986 8.85865C150.109 9.17143 149.415 9.50957 148.905 9.87314L147.285 7.75448C147.937 7.28266 148.788 6.85322 149.837 6.46625C150.945 6.06278 152.093 5.76143 153.264 5.56653C154.475 5.35603 155.705 5.24918 156.936 5.24732C158.398 5.23324 159.854 5.42122 161.256 5.80509C162.562 6.1777 163.602 6.70783 164.375 7.39549C165.148 8.08314 165.533 8.88442 165.528 9.79927V17.3639H161.208V14.8147C160.508 15.7258 159.488 16.4547 158.145 17.0015ZM151.737 14.5978C152.032 14.7886 152.453 14.9317 153.001 15.0306C153.621 15.1355 154.25 15.1852 154.88 15.1794C155.914 15.1894 156.945 15.0628 157.94 14.8034C158.865 14.5519 159.614 14.2138 160.187 13.7889C160.761 13.3641 161.104 12.893 161.217 12.3758V11.9214L155.006 12.3758C154.356 12.4257 153.711 12.5287 153.079 12.6836C152.606 12.7883 152.16 12.9782 151.765 13.2425C151.455 13.4697 151.299 13.706 151.299 13.9491C151.299 14.1922 151.443 14.408 151.737 14.5978Z" fill="white"/>
<path d="M50.7363 9.32202C51.3558 9.33508 51.9453 9.5727 52.3785 9.98411C52.8117 10.3954 53.0543 10.9478 53.0543 11.523C53.0543 12.0983 52.8117 12.6507 52.3785 13.062C51.9453 13.4734 51.3558 13.711 50.7363 13.724H31.9882C31.3687 13.711 30.7792 13.4734 30.3459 13.062C29.9127 12.6507 29.6702 12.0983 29.6702 11.523C29.6702 10.9478 29.9127 10.3954 30.3459 9.98411C30.7792 9.5727 31.3687 9.33508 31.9882 9.32202H50.7363ZM50.7363 5.68683H31.9882C30.3226 5.69282 28.7271 6.30975 27.5495 7.40311C26.372 8.49652 25.7079 9.97765 25.7021 11.5236C25.707 13.0712 26.3715 14.554 27.5505 15.6483C28.7294 16.7426 30.3271 17.3593 31.9943 17.3638H50.7363C52.4034 17.359 54.0007 16.7421 55.1793 15.6479C56.358 14.5537 57.0223 13.071 57.0272 11.5236C57.0234 9.97577 56.3594 8.49235 55.1805 7.39753C54.0018 6.30274 52.4038 5.68565 50.7363 5.68115V5.68683Z" fill="white"/>
<path d="M62.4765 17.3649L59.2686 5.68115H63.5523L66.0002 15.5894L68.4017 5.68115H74.3766L76.8242 15.703L79.2489 5.68115H83.4848L80.3994 17.3649H73.6682L71.4137 7.49878L69.1357 17.3627L62.4765 17.3649Z" fill="white"/>
</g>
</g>
<defs>
<clipPath id="clip0_7745_4214">
<rect width="166" height="22" fill="white"/>
</clipPath>
</defs>
</svg>
