<svg width="140" height="23" viewBox="0 0 140 23" fill="none" xmlns="http://www.w3.org/2000/svg">
<g clip-path="url(#clip0_7745_4252)">
<mask id="mask0_7745_4252" style="mask-type:luminance" maskUnits="userSpaceOnUse" x="0" y="0" width="140" height="23">
<path d="M139.671 0.530762H0.708984V22.5308H139.671V0.530762Z" fill="white"/>
</mask>
<g mask="url(#mask0_7745_4252)">
<mask id="mask1_7745_4252" style="mask-type:luminance" maskUnits="userSpaceOnUse" x="0" y="0" width="140" height="23">
<path d="M139.671 0.530762H0.708984V22.5308H139.671V0.530762Z" fill="white"/>
</mask>
<g mask="url(#mask1_7745_4252)">
<path d="M86.642 12.5234C86.6284 16.4801 83.4195 19.6618 79.4628 19.6482C75.5061 19.6346 72.3243 16.4257 72.3379 12.469C72.3515 8.52587 75.5468 5.34416 79.49 5.33057C83.4467 5.34416 86.642 8.55306 86.642 12.5234ZM79.49 7.4653C76.7026 7.4517 74.4319 9.70881 74.4183 12.5098C74.4047 15.3108 76.6618 17.5679 79.4628 17.5815C82.2502 17.5951 84.5209 15.338 84.5345 12.537V12.5234C84.5345 9.736 82.2774 7.4653 79.49 7.4653Z" fill="white"/>
<path d="M123.572 12.5235C123.558 16.4803 120.349 19.662 116.392 19.6484C112.436 19.6348 109.254 16.4259 109.268 12.4691C109.281 8.52599 112.49 5.33068 116.433 5.34428C120.376 5.34428 123.572 8.56678 123.572 12.5235ZM116.42 7.46542C113.632 7.45182 111.348 9.70893 111.334 12.4963C111.321 15.2837 113.578 17.568 116.365 17.5816C119.153 17.5952 121.437 15.3381 121.451 12.5507C121.451 12.5371 121.451 12.5371 121.451 12.5235C121.451 9.73612 119.207 7.47902 116.42 7.46542Z" fill="white"/>
<path d="M99.9133 5.7251H88.0566V7.84624H92.9244V19.3085H95.0455V7.84624H99.9133V5.7251Z" fill="white"/>
<path d="M105.556 5.7251H103.435V19.3221H105.556V5.7251Z" fill="white"/>
<path d="M32.3902 14.2912C34.6609 13.3394 35.735 10.7151 34.7697 8.44443C34.0762 6.79919 32.4582 5.72502 30.6769 5.71143H24.5039V19.3085H26.625V14.6311H30.0379L32.9341 19.3085H35.5039L32.3902 14.2912ZM26.625 12.5235V7.84616H30.6769C31.9687 7.84616 33.0156 8.89313 33.0156 10.1849C33.0156 11.4766 31.9687 12.5235 30.6769 12.5235H26.625Z" fill="white"/>
<path d="M66.8042 5.7251L61.7053 14.6312L56.6064 5.7251H54.4854V19.3085H56.6064V9.98097L61.7053 18.887L66.8042 9.98097V19.3085H68.9254V5.7251H66.8042Z" fill="white"/>
<path d="M137.536 5.72473V14.9299L126.931 5.30322V19.3082H129.052V10.1166L139.671 19.7433V5.72473H137.536Z" fill="white"/>
<path d="M44.6273 5.30322L37.4072 19.3218H39.8003L41.3368 16.3576H47.9585L49.495 19.3218H51.8881L44.6273 5.30322ZM42.4109 14.2229L44.6273 9.92621L46.8436 14.2229H42.4109Z" fill="white"/>
<path opacity="0.62" d="M14.306 7.32928C14.306 3.5765 11.2603 0.530762 7.5075 0.530762C5.38636 0.530762 0.708984 0.530762 0.708984 0.530762V22.5308H14.306L9.00318 13.9646C12.1033 13.2712 14.306 10.511 14.306 7.32928Z" fill="white"/>
<path d="M0.708984 0.530762V22.5308H14.306L0.708984 0.530762Z" fill="white"/>
</g>
</g>
</g>
<defs>
<clipPath id="clip0_7745_4252">
<rect width="140" height="23" fill="white"/>
</clipPath>
</defs>
</svg>
