<svg width="63" height="21" viewBox="0 0 63 21" fill="none" xmlns="http://www.w3.org/2000/svg">
<g clip-path="url(#clip0_7745_4180)">
<mask id="mask0_7745_4180" style="mask-type:luminance" maskUnits="userSpaceOnUse" x="0" y="0" width="63" height="21">
<path d="M62.7089 0.530762H0.25V20.5308H62.7089V0.530762Z" fill="white"/>
</mask>
<g mask="url(#mask0_7745_4180)">
<path fill-rule="evenodd" clip-rule="evenodd" d="M9.13818 7.1945C9.12673 5.98945 8.14648 5.0161 6.93872 5.0161C5.73102 5.0161 4.75076 5.98945 4.73928 7.1945H0.25C0.263947 3.51212 3.25311 0.53125 6.93872 0.53125C10.6244 0.53125 13.6135 3.51212 13.6275 7.1945H9.13818ZM4.73901 13.8364C4.73901 15.0512 5.72387 16.0361 6.93872 16.0361C8.15363 16.0361 9.13848 15.0512 9.13848 13.8364C9.13848 12.6215 8.15363 11.6367 6.93872 11.6367C5.72387 11.6367 4.73901 12.6215 4.73901 13.8364ZM6.93872 9.41556C8.03703 9.41556 8.94723 8.61066 9.11183 7.55855C11.7127 8.45876 13.5806 10.9293 13.5806 13.8364C13.5806 17.5046 10.607 20.4782 6.93872 20.4782C3.27052 20.4782 0.296856 17.5046 0.296856 13.8364C0.296856 10.9293 2.16472 8.45876 4.76563 7.55855C4.93023 8.61066 5.84047 9.41556 6.93872 9.41556Z" fill="white"/>
<path fill-rule="evenodd" clip-rule="evenodd" d="M23.3157 16.0358C22.1079 16.0358 21.1277 15.0625 21.1163 13.8574H21.12V7.19404H21.1163C21.1277 5.98913 22.1079 5.01579 23.3157 5.01579C24.5233 5.01579 25.5036 5.98913 25.5151 7.19404V13.8574C25.5036 15.0625 24.5233 16.0358 23.3157 16.0358ZM23.3157 0.530762C19.6301 0.530762 16.6409 3.51177 16.627 7.19404V13.8574C16.6409 17.5396 19.6301 20.5206 23.3157 20.5206C27.0013 20.5206 29.9905 17.5396 30.0044 13.8574V7.19404C29.9903 3.51177 27.0013 0.530762 23.3157 0.530762Z" fill="white"/>
<path fill-rule="evenodd" clip-rule="evenodd" d="M58.2195 13.8574C58.208 15.0625 57.2275 16.0358 56.02 16.0358C54.8125 16.0358 53.832 15.0625 53.8205 13.8574V7.19404C53.832 5.98913 54.812 5.01579 56.02 5.01579C57.2275 5.01579 58.208 5.98913 58.2195 7.19404H58.2155V13.8574H58.2195ZM56.02 0.530762C52.3345 0.530762 49.345 3.51177 49.3311 7.19404V13.8574C49.345 17.5396 52.3345 20.5206 56.02 20.5206C59.7055 20.5206 62.6951 17.5396 62.7091 13.8574V7.19404C62.6951 3.51177 59.7055 0.530762 56.02 0.530762Z" fill="white"/>
<path fill-rule="evenodd" clip-rule="evenodd" d="M37.448 7.17266H33.0059C33.0059 3.50445 35.9795 0.530762 39.6477 0.530762C43.3159 0.530762 46.2896 3.50445 46.2896 7.17266C46.2896 8.57017 45.8665 9.87282 45.1208 10.9368C44.1911 12.2631 38.3455 20.5205 38.3455 20.5205L33.0059 20.5202C33.0059 20.5202 41.2437 8.77677 41.4964 8.41857C41.7436 8.06797 41.8474 7.62827 41.8474 7.17266C41.8474 5.95776 40.8626 4.97291 39.6477 4.97291C38.4329 4.97291 37.448 5.95776 37.448 7.17266ZM47.251 18.0308C47.251 19.4115 46.1317 20.5308 44.751 20.5308C43.3702 20.5308 42.251 19.4115 42.251 18.0308C42.251 16.65 43.3702 15.5307 44.751 15.5307C46.1317 15.5307 47.251 16.65 47.251 18.0308Z" fill="white"/>
</g>
</g>
<defs>
<clipPath id="clip0_7745_4180">
<rect width="63" height="21" fill="white"/>
</clipPath>
</defs>
</svg>
