<svg width="116" height="73" viewBox="0 0 116 73" fill="none" xmlns="http://www.w3.org/2000/svg">
<g clip-path="url(#clip0_7745_4326)">
<path d="M67.2948 31.5635L62.4314 9.71742L48.8496 27.3073L67.2948 31.5635ZM84.7112 30.2757C84.7112 45.0972 72.6738 57.1141 57.8258 57.1141C42.9778 57.1141 30.9416 45.0972 30.9404 30.2757C30.9404 15.4554 42.9766 3.44092 57.8258 3.44092C59.2835 3.44092 60.7135 3.56139 62.1097 3.78305L59.8184 6.75144C59.1799 6.69844 58.5378 6.66471 57.886 6.66471C45.3848 6.66471 35.2497 16.5553 35.2497 28.7542C35.2497 40.9518 45.3836 50.8424 57.886 50.8424C70.3909 50.8412 80.526 40.9518 80.526 28.7542C80.526 19.3671 74.523 11.3546 66.06 8.15492L65.2432 4.48299C76.4831 7.69834 84.7112 18.0251 84.7112 30.2757Z" fill="white"/>
<path d="M62.5842 60.7651C60.2094 60.7651 58.3276 62.6654 58.3276 65.0418C58.3276 67.5034 60.2142 69.2985 62.5842 69.2985C64.9559 69.2984 66.8409 67.3998 66.8409 65.0418C66.8409 62.5039 65.0242 60.7651 62.5842 60.7651ZM40.0563 60.7852C38.6468 60.7852 37.7071 61.6028 37.7071 62.773C37.7071 63.605 38.2115 64.2901 38.5705 64.7005C37.7135 65.1679 36.9642 65.8586 36.9642 67.0497C36.9642 68.3202 38.0035 69.2985 39.4941 69.2985C40.3912 69.2984 41.1469 68.9876 41.763 68.3347L42.4255 69.1177H44.2326C44.2326 69.1177 42.8584 67.5548 42.6464 67.2906C42.8432 67.0593 43.9917 65.2426 43.9917 65.2426H42.546L41.8433 66.3269L40.5382 64.8812C41.6087 64.319 42.285 63.5271 42.285 62.6726C42.285 61.5289 41.3044 60.7852 40.0563 60.7852ZM53.2679 60.7852C50.9653 60.7852 49.0313 62.5521 49.0313 65.0218C49.0313 67.5051 50.7806 69.2583 53.2679 69.2583C54.6493 69.2583 55.801 68.7178 56.5607 67.6721L56.6009 67.6119L55.4163 66.628L55.3761 66.7083C54.9271 67.5219 54.2244 67.9331 53.2679 67.9331C51.6439 67.9331 50.5974 66.665 50.5974 65.0218C50.5974 63.3834 51.7588 62.1305 53.2679 62.1305C54.1722 62.1305 54.989 62.6164 55.3761 63.295L55.4163 63.3753L56.621 62.4116L56.5607 62.3513C55.752 61.357 54.5473 60.7852 53.2679 60.7852ZM12.9705 60.8254L8.99501 69.0977H10.5611L11.3442 67.3709H14.4764L15.2193 69.0977H16.926L12.9705 60.8254ZM23.9735 60.8254V69.0977H25.4593V64.3391L30.8403 69.2985V60.9659H29.3545V65.8048L23.9735 60.8254ZM70.5152 60.8254L68.4873 69.0977H69.9932L70.977 64.7206L73.4868 69.2985L75.9966 64.7005L77.0005 69.0977H78.6068L76.4785 60.8254L73.527 66.3269L70.5152 60.8254ZM91.1759 60.8254L87.2204 69.0977H88.7665L89.5495 67.3709H92.6818L93.4447 69.0977H95.1313L91.1759 60.8254ZM97.1191 60.8254V69.0977H98.6049V64.319L103.986 69.2985V60.9659H102.5V65.8048L97.1191 60.8254ZM2.36914 60.9659V69.0977H4.65808C6.74061 69.0977 7.85054 68.2664 7.85054 66.7686C7.85055 65.7751 7.22811 65.078 6.28443 64.7607C6.92051 64.4764 7.38874 63.85 7.38874 63.0742C7.38875 61.6662 6.27318 60.9659 4.31675 60.9659H2.36914ZM18.8937 60.9659V69.0977H20.4397V60.9659H18.8937ZM81.2371 60.9659V69.0977H82.763V66.0658C82.8675 66.0795 83.0176 66.106 83.1445 66.106C85.1098 66.106 86.4976 65.2274 86.4976 63.536C86.4976 61.9144 85.3411 60.9659 83.1445 60.9659H81.2371ZM105.813 60.9659L108.785 65.6843V69.0977H110.311V65.6843L113.282 60.9659H111.596L109.548 64.2387L107.56 60.9659H105.813ZM40.0362 61.8895C40.5703 61.8895 40.9397 62.2301 40.9397 62.7328C40.9397 63.2934 40.3775 63.7295 39.8153 64.0178C39.5278 63.7375 39.1126 63.291 39.1126 62.8131C39.1126 62.2429 39.5029 61.8895 40.0362 61.8895ZM62.5842 62.1104C64.2154 62.1104 65.2547 63.2749 65.2547 65.0418C65.2547 66.6023 64.1712 67.9532 62.5842 67.9532C60.9956 67.9532 59.9138 66.6947 59.9138 65.0418C59.9138 63.5167 60.9948 62.1104 62.5842 62.1104ZM3.8951 62.1907H4.15612C5.28533 62.1907 5.8427 62.5007 5.8427 63.3151C5.8427 64.1447 5.2797 64.4194 4.21635 64.4194H3.8951V62.1907ZM82.763 62.1907H83.1445C84.3934 62.1875 84.9315 62.6742 84.9315 63.536C84.9315 64.3849 84.3621 64.8411 83.1445 64.8411C82.9686 64.8354 82.8634 64.8362 82.763 64.821V62.1907ZM12.9705 63.7167L13.9343 66.0658H11.9265L12.9705 63.7167ZM91.1759 63.7167L92.1397 66.0658H90.1519L91.1759 63.7167ZM39.3335 65.584L40.9197 67.4312C40.694 67.742 40.196 68.0536 39.6547 68.0536C38.9006 68.0536 38.4299 67.5805 38.4299 66.9091C38.4299 66.3373 38.8532 65.8353 39.2933 65.604C39.3054 65.5984 39.3238 65.5896 39.3335 65.584ZM3.8951 65.6442H4.57776C5.64834 65.6418 6.26435 65.9237 6.26435 66.7887C6.26435 67.5436 5.70456 67.8665 4.57776 67.8729H3.8951V65.6442Z" fill="white"/>
</g>
<defs>
<clipPath id="clip0_7745_4326">
<rect width="115.652" height="72.2822" fill="white" transform="translate(0 0.0678711)"/>
</clipPath>
</defs>
</svg>
